<?xml version="1.0" encoding="UTF-8" standalone="no"?>
<!-- Filename: c718f99f90bcf25eeb37d40023c27380483dc7092728605b1ee6db2e3da40d3b.svg -->
<!-- Created with https://svgstud.io -->
<svg
  version="1.1"
  xmlns="http://www.w3.org/2000/svg"
  xmlns:xlink="http://www.w3.org/1999/xlink"
  xmlns:svg="http://www.w3.org/2000/svg"
  xmlns:rdf="http://www.w3.org/1999/02/22-rdf-syntax-ns#"
  xmlns:cc="http://creativecommons.org/ns#"
  xmlns:dc="http://purl.org/dc/elements/1.1/"
  viewBox="0 0 768 768"
  width="768"
  height="768"
  role="img"
  aria-labelledby="titleID descID"
>
  <title id="titleID">Create a clean, modern SVG illustration for the "About Us" section of a professional removals company called CityTouch. Show a friendly, diverse team of movers helping customers with packing and loading boxes into a branded CityTouch van. Include urban elements in the background like city buildings or houses to suggest city-wide service. Style: flat vector, soft gradients, rounded shapes. Include subtle icons representing reliability, care, and speed (e.g. shield, clock, hands holding a box). Co</title>
  <desc id="descID">AI-generated SVG illustration: Create a clean, modern SVG illustration for the "About Us" section of a professional removals company called CityTouch. Show a friendly, diverse team of movers helping customers with packing and loading boxes into a branded CityTouch van. Include urban elements in the background like city buildings or houses to suggest city-wide service. Style: flat vector, soft gradients, rounded shapes. Include subtle icons representing reliability, care, and speed (e.g. shield, clock, hands holding a box). Co, created on https://svgstud.io</desc>

  <rect width="100%" height="100%" fill="white" />

  <image
    href="https://svgstud.io/pngs/c718f99f90bcf25eeb37d40023c27380483dc7092728605b1ee6db2e3da40d3b.png"
    x="0" y="0"
    width="768" height="768"
    preserveAspectRatio="xMidYMid meet"
    opacity="0"
  />

  <metadata>
    Created by https://svgstud.io and licensed under CC-BY-SA 4.0 license. Please attribute https://svgstud.io
  </metadata>
  <metadata>
    Create a clean, modern SVG illustration for the "About Us" section of a professional removals company called CityTouch. Show a friendly, diverse team of movers helping customers with packing and loading boxes into a branded CityTouch van. Include urban elements in the background like city buildings or houses to suggest city-wide service. Style: flat vector, soft gradients, rounded shapes. Include subtle icons representing reliability, care, and speed (e.g. shield, clock, hands holding a box). Co
  </metadata>
  <metadata>
    7
  </metadata>
  <metadata>
    <rdf:RDF
      xmlns:rdf="http://www.w3.org/1999/02/22-rdf-syntax-ns#"
      xmlns:cc="http://creativecommons.org/ns#"
      xmlns:dc="http://purl.org/dc/elements/1.1/"
    >
      <cc:Work rdf:about="">
        <cc:license rdf:resource="http://creativecommons.org/licenses/by-sa/4.0/" />
        <dc:creator>
          <cc:Agent>
            <dc:title>https://svgstud.io</dc:title>
          </cc:Agent>
        </dc:creator>
      </cc:Work>
      <cc:License rdf:about="http://creativecommons.org/licenses/by-sa/4.0/">
        <cc:permits rdf:resource="http://creativecommons.org/ns#Reproduction" />
        <cc:permits rdf:resource="http://creativecommons.org/ns#Distribution" />
        <cc:requires rdf:resource="http://creativecommons.org/ns#Notice" />
        <cc:requires rdf:resource="http://creativecommons.org/ns#Attribution" />
        <cc:permits rdf:resource="http://creativecommons.org/ns#DerivativeWorks" />
        <cc:requires rdf:resource="http://creativecommons.org/ns#ShareAlike" />
      </cc:License>
    </rdf:RDF>
  </metadata>
  <metadata id="uid">c718f99f90bcf25eeb37d40023c27380483dc7092728605b1ee6db2e3da40d3b</metadata>

  <path stroke="none" fill="black" fill-rule="evenodd" d="M268.50,642.81C250.90,642.70 233.57,642.49 230.00,642.35C226.43,642.20 213.15,641.58 200.50,640.98C187.85,640.37 166.93,639.00 154.00,637.93C141.07,636.85 127.87,635.36 124.66,634.60C121.45,633.84 118.40,632.80 117.88,632.28C117.36,631.76 117.22,630.58 117.58,629.66C117.93,628.74 120.52,627.33 123.36,626.51C126.19,625.69 134.35,624.14 141.50,623.07C148.65,622.00 159.75,620.56 166.17,619.87C177.84,618.63 177.84,618.63 170.95,612.25C165.77,607.45 163.10,603.96 160.21,598.18C158.09,593.95 156.12,589.57 155.83,588.45C155.33,586.55 154.05,586.31 138.47,585.18C124.37,584.15 120.98,583.59 117.58,581.71C115.34,580.48 112.97,578.35 112.32,576.97C111.66,575.60 110.65,571.56 110.08,567.99C109.50,564.42 108.73,556.19 108.36,549.70C107.72,538.29 107.77,537.80 110.10,534.70C112.50,531.50 112.50,531.50 112.50,502.00C112.50,474.90 112.65,472.21 114.40,469.00C115.45,467.07 120.85,461.00 126.40,455.50C135.06,446.93 138.40,444.43 149.80,438.00C157.12,433.88 164.54,429.58 166.30,428.46C169.50,426.42 169.50,426.42 169.50,417.28C169.50,408.69 169.66,407.97 172.24,405.28C174.98,402.41 174.98,402.41 175.24,278.23C175.50,154.05 175.50,154.05 178.23,151.31C179.73,149.81 188.06,144.28 196.73,139.02C212.50,129.45 212.50,129.45 213.10,123.15C213.51,118.90 214.33,116.23 215.60,114.96C216.65,113.92 227.40,107.36 239.50,100.39C251.60,93.42 265.10,85.69 269.50,83.20C275.17,79.99 278.96,78.55 282.50,78.24C286.44,77.90 293.78,79.44 317.00,85.45C333.23,89.65 359.10,96.17 374.50,99.93C389.90,103.70 407.68,108.02 414.00,109.52C420.32,111.03 427.30,112.61 429.50,113.04C431.97,113.53 433.98,113.43 434.75,112.79C435.44,112.22 436.00,109.87 436.00,107.57C436.00,105.27 436.56,102.63 437.25,101.72C437.94,100.81 443.90,97.46 450.50,94.28C462.19,88.65 462.70,88.50 470.50,88.62C475.89,88.70 482.38,89.75 490.41,91.84C497.22,93.61 504.01,96.06 506.27,97.56C508.45,99.00 524.70,111.73 542.38,125.84C560.07,139.95 578.58,154.67 583.52,158.55C588.46,162.43 599.15,170.47 607.27,176.41C615.39,182.35 622.50,188.06 623.05,189.10C623.72,190.35 623.85,211.99 623.43,253.24C622.79,315.50 622.79,315.50 626.97,320.45C629.27,323.17 632.29,327.34 633.68,329.71C635.06,332.08 636.80,335.99 637.52,338.40C638.25,340.81 639.31,347.00 639.89,352.14C640.47,357.29 641.46,371.62 642.10,384.00C642.74,396.38 643.54,427.19 643.88,452.49C644.50,498.48 644.50,498.48 647.50,499.89C649.15,500.67 650.83,501.80 651.23,502.40C651.64,503.01 651.96,508.23 651.94,514.00C651.93,519.77 651.52,526.51 651.05,528.97C650.51,531.78 649.24,534.26 647.63,535.64C646.22,536.86 642.48,538.33 639.29,538.94C636.10,539.54 631.70,540.36 629.50,540.77C625.50,541.50 625.50,541.50 624.68,548.50C624.22,552.35 623.22,558.86 622.45,562.97C621.67,567.08 619.29,574.08 617.16,578.53C615.02,582.97 611.86,588.22 610.14,590.19C608.41,592.16 607.00,594.04 607.00,594.38C607.00,594.72 610.32,595.00 614.38,595.00C618.43,595.00 623.17,595.28 624.91,595.63C626.65,595.98 627.91,596.77 627.71,597.38C627.51,598.00 625.67,599.06 623.62,599.74C621.57,600.42 603.61,603.67 583.70,606.95C563.79,610.23 540.08,614.08 531.00,615.50C521.92,616.92 488.01,621.89 455.63,626.56C423.26,631.22 389.06,635.91 379.63,636.98C370.21,638.05 356.88,639.39 350.00,639.97C343.12,640.54 329.18,641.46 319.00,642.00C308.82,642.55 286.10,642.91 268.50,642.81zM233.75,615.66C236.91,615.32 255.25,613.47 274.50,611.55C293.75,609.63 311.43,607.88 313.80,607.65C316.16,607.42 318.33,607.00 318.61,606.72C318.89,606.44 317.80,602.45 316.18,597.85C313.24,589.50 313.24,589.50 305.62,589.53C301.43,589.54 285.39,589.66 269.97,589.78C244.28,589.98 241.89,590.15 241.34,591.75C241.02,592.71 239.66,595.96 238.33,598.97C237.00,601.98 234.13,606.79 231.96,609.68C229.78,612.56 228.00,615.22 228.00,615.60C228.00,615.97 230.59,616.00 233.75,615.66zM372.20,607.00C374.34,607.00 377.31,606.36 378.80,605.59C380.28,604.81 382.93,602.67 384.68,600.84C386.43,599.00 389.01,595.20 390.41,592.40C391.81,589.59 393.47,584.90 394.10,581.98C394.78,578.79 395.03,572.05 394.72,565.09C394.43,558.71 393.64,551.85 392.95,549.83C392.27,547.81 390.09,544.02 388.11,541.41C386.12,538.81 383.34,535.82 381.91,534.77C380.49,533.71 377.53,532.61 375.33,532.32C372.68,531.96 370.27,532.33 368.19,533.40C366.47,534.29 363.88,536.25 362.43,537.76C360.98,539.27 358.51,543.17 356.93,546.44C355.36,549.70 353.55,554.86 352.92,557.91C352.26,561.07 351.95,568.26 352.19,574.65C352.60,585.17 352.85,586.32 356.39,593.48C359.09,598.95 361.31,601.94 364.23,604.05C367.08,606.12 369.47,607.00 372.20,607.00zM373.70,597.00C371.96,597.00 370.04,595.70 367.64,592.89C365.71,590.64 363.32,587.15 362.33,585.14C361.09,582.64 360.42,578.54 360.18,572.00C359.90,564.18 360.21,561.50 361.96,556.83C363.13,553.72 365.00,550.00 366.11,548.58C367.62,546.67 369.07,546.00 371.69,546.00C374.46,546.00 376.06,546.83 379.01,549.77C381.08,551.85 383.32,555.33 383.97,557.52C384.62,559.71 385.40,565.77 385.69,571.00C386.03,576.99 385.78,582.15 385.02,584.96C384.27,587.72 382.36,590.88 380.02,593.21C377.63,595.61 375.30,597.00 373.70,597.00zM538.88,593.76C552.26,594.00 552.26,594.00 549.65,590.75C548.21,588.96 545.71,585.25 544.09,582.50C542.47,579.75 540.39,574.49 539.47,570.82C538.54,567.14 537.27,563.93 536.64,563.69C536.00,563.45 527.61,564.08 517.99,565.10C508.37,566.12 489.48,568.09 476.00,569.48C462.52,570.87 449.84,572.27 447.81,572.58C444.42,573.11 443.87,573.68 441.11,579.57C439.46,583.10 436.91,587.56 435.44,589.48C432.78,592.98 432.78,592.98 479.14,593.25C504.64,593.40 531.52,593.63 538.88,593.76zM374.73,586.00C375.73,586.00 377.60,585.27 378.88,584.37C380.16,583.47 381.84,581.24 382.61,579.40C383.37,577.57 384.00,575.13 384.00,573.98C384.00,572.56 383.04,571.56 381.00,570.85C378.97,570.14 378.00,569.14 378.00,567.73C378.00,566.59 378.72,564.87 379.59,563.90C380.58,562.81 380.93,561.36 380.52,560.07C380.16,558.92 378.73,556.64 377.34,554.99C375.96,553.35 374.05,552.00 373.10,552.00C372.15,552.00 370.20,553.24 368.76,554.75C367.32,556.26 365.85,558.67 365.50,560.11C365.12,561.64 365.50,564.27 366.43,566.48C367.29,568.55 368.00,572.68 368.00,575.67C368.00,580.09 368.45,581.54 370.45,583.55C371.80,584.90 373.73,586.00 374.73,586.00zM591.28,578.99C593.05,578.99 595.75,578.16 597.27,577.16C598.80,576.15 601.40,573.49 603.05,571.25C604.70,569.00 607.01,564.54 608.19,561.33C609.90,556.66 610.33,553.22 610.35,544.00C610.37,534.31 610.01,531.57 608.05,526.59C606.78,523.34 604.26,519.07 602.45,517.09C599.60,513.98 598.54,513.50 594.63,513.50C590.82,513.50 589.54,514.05 586.52,516.98C584.54,518.90 581.86,522.72 580.56,525.48C579.25,528.24 577.64,533.32 576.96,536.76C576.24,540.45 575.93,547.04 576.22,552.76C576.57,559.88 577.31,563.92 578.98,567.76C580.23,570.65 582.79,574.36 584.66,576.01C586.94,578.01 589.13,579.00 591.28,578.99zM594.02,569.00C592.54,569.00 590.40,567.99 589.22,566.74C588.05,565.49 586.44,562.90 585.64,560.99C584.84,559.07 583.88,555.42 583.50,552.87C583.10,550.21 583.33,545.75 584.02,542.40C584.91,538.11 586.10,535.70 588.52,533.28C590.82,530.98 592.34,530.19 593.59,530.67C595.26,531.31 595.27,531.22 593.68,528.95C592.76,527.63 592.00,525.76 592.00,524.78C592.00,523.80 592.64,523.00 593.42,523.00C594.20,523.00 595.57,523.28 596.46,523.62C597.35,523.97 598.90,525.88 599.90,527.87C600.90,529.87 602.02,532.78 602.40,534.34C602.77,535.89 602.79,538.09 602.43,539.21C601.86,541.02 601.54,540.82 599.58,537.38C597.84,534.33 596.85,533.56 594.93,533.78C593.60,533.93 591.73,535.05 590.79,536.28C589.85,537.50 588.79,539.78 588.44,541.34C588.09,542.91 588.08,546.07 588.43,548.37C588.77,550.68 589.94,554.01 591.01,555.78C592.09,557.55 593.41,559.00 593.95,559.00C594.49,559.00 596.47,557.65 598.35,556.00C600.23,554.35 602.04,553.00 602.38,553.00C602.72,553.00 603.00,554.14 603.00,555.53C603.00,556.92 602.31,559.72 601.46,561.75C600.62,563.77 599.20,566.23 598.31,567.21C597.42,568.20 595.49,569.00 594.02,569.00zM416.49,561.00C416.62,561.00 432.20,559.42 451.11,557.50C470.03,555.57 499.45,552.64 516.50,550.99C533.55,549.34 549.75,547.66 552.50,547.25C557.50,546.50 557.50,546.50 559.21,536.50C560.16,531.00 562.51,521.55 564.44,515.50C566.37,509.45 569.64,501.58 571.72,498.01C573.80,494.44 577.68,489.36 580.35,486.73C583.01,484.10 587.06,480.97 589.35,479.79C592.05,478.39 595.26,477.65 598.53,477.67C601.29,477.70 604.95,478.44 606.67,479.33C608.38,480.21 611.93,483.09 614.56,485.72C617.19,488.34 620.58,493.20 622.10,496.50C623.62,499.80 625.66,504.30 626.64,506.50C628.43,510.50 628.43,510.50 628.76,506.45C629.04,503.02 629.55,502.23 632.05,501.29C635.00,500.17 635.00,500.17 635.02,476.84C635.02,464.00 634.56,444.05 633.98,432.50C633.41,420.95 632.24,398.90 631.38,383.50C630.53,368.10 629.18,351.71 628.38,347.07C627.47,341.77 625.76,336.46 623.79,332.76C622.07,329.52 618.48,324.92 615.82,322.53C613.16,320.14 608.85,317.45 606.24,316.55C603.63,315.65 595.20,314.03 587.50,312.94C579.80,311.86 557.75,308.96 538.50,306.49C519.25,304.03 492.70,300.87 479.50,299.48C466.30,298.08 448.75,296.25 440.50,295.41C428.14,294.15 422.60,294.07 409.00,294.98C399.93,295.59 380.35,297.20 365.50,298.55C350.65,299.90 332.88,301.72 326.00,302.59C319.12,303.46 304.73,305.71 294.00,307.61C283.27,309.50 270.23,312.18 265.00,313.56C259.77,314.94 251.99,317.71 247.70,319.71C241.65,322.54 238.48,324.87 233.55,330.09C229.28,334.62 224.69,341.27 219.52,350.43C215.30,357.91 207.20,373.82 201.54,385.77C195.87,397.72 189.61,411.66 187.62,416.74C185.63,421.83 184.00,426.78 184.00,427.74C184.00,428.98 181.09,430.90 174.25,434.21C168.89,436.79 158.43,442.53 151.00,446.95C143.57,451.37 136.55,456.06 135.39,457.38C134.19,458.75 133.01,461.90 132.63,464.73C132.10,468.74 131.48,469.91 129.44,470.85C128.05,471.48 126.32,472.00 125.61,472.00C124.89,472.00 123.63,472.79 122.79,473.75C121.95,474.71 120.98,476.71 120.63,478.19C120.27,479.72 120.45,481.16 121.06,481.54C121.65,481.90 122.96,481.44 123.99,480.51C125.01,479.58 126.66,478.98 127.64,479.17C128.62,479.36 130.50,481.09 131.81,483.01C133.89,486.06 134.12,487.25 133.59,492.43C133.26,495.69 132.31,499.41 131.47,500.68C130.64,501.96 129.63,502.99 129.23,502.97C128.83,502.95 127.67,502.31 126.66,501.54C125.03,500.31 124.96,499.75 126.06,496.70C126.75,494.80 127.01,492.47 126.64,491.51C126.12,490.16 125.67,490.03 124.59,490.92C123.83,491.55 122.96,493.52 122.65,495.29C122.35,497.05 121.81,499.89 121.46,501.59C120.96,504.02 121.35,505.30 123.31,507.57C125.48,510.09 126.50,510.47 131.15,510.48C136.50,510.50 136.50,510.50 136.77,487.22C137.04,463.94 137.04,463.94 139.38,463.04C140.67,462.55 156.30,461.39 174.11,460.45C191.93,459.52 218.43,458.70 233.00,458.63C258.92,458.50 259.50,458.54 259.37,460.50C259.30,461.60 258.47,465.37 257.53,468.89C256.34,473.30 256.11,475.92 256.76,477.38C257.66,479.41 257.75,479.38 259.25,476.49C260.11,474.85 261.87,472.54 263.15,471.37C264.44,470.19 267.07,468.42 269.00,467.42C270.93,466.42 275.56,465.31 279.31,464.94C283.05,464.58 286.58,463.82 287.14,463.26C287.70,462.70 288.23,460.05 288.33,457.37C288.50,452.50 288.50,452.50 283.00,452.75C279.98,452.89 276.88,452.77 276.11,452.48C275.00,452.06 275.08,451.57 276.54,449.96C277.53,448.86 283.33,444.67 289.42,440.66C295.52,436.64 303.09,431.89 306.25,430.10C309.41,428.32 312.00,426.59 312.00,426.27C312.00,425.94 298.39,425.98 281.75,426.34C265.11,426.71 238.23,427.65 222.02,428.43C201.05,429.44 192.16,429.55 191.24,428.79C190.20,427.92 190.24,427.29 191.45,425.44C192.27,424.19 195.94,415.81 199.59,406.83C203.25,397.85 210.51,381.28 215.72,370.02C220.93,358.75 226.26,347.70 227.58,345.46C228.89,343.21 230.99,340.42 232.24,339.25C233.68,337.89 237.79,336.39 243.50,335.13C248.45,334.04 261.95,331.79 273.50,330.13C285.05,328.46 299.00,326.62 304.50,326.03C310.00,325.45 322.60,324.30 332.50,323.50C342.40,322.69 354.19,322.02 358.70,322.01C363.21,322.01 368.05,322.52 369.45,323.16C371.11,323.92 372.00,325.13 372.00,326.63C372.00,327.89 371.36,330.86 370.58,333.22C369.80,335.57 367.58,342.68 365.65,349.00C363.72,355.32 358.48,373.10 353.99,388.50C349.51,403.90 345.31,417.31 344.67,418.29C344.03,419.28 339.23,422.01 334.00,424.36C328.77,426.71 319.30,432.05 312.94,436.23C306.59,440.41 299.76,445.63 297.76,447.84C295.77,450.05 293.66,453.58 293.07,455.68C292.49,457.78 292.01,460.65 292.01,462.05C292.00,463.45 292.51,465.11 293.13,465.73C293.75,466.35 294.62,471.95 295.07,478.18C295.52,484.40 295.91,495.86 295.94,503.64C295.99,515.82 295.75,518.09 294.20,520.00C292.60,521.98 291.23,522.28 281.45,522.73C274.97,523.03 268.87,522.79 266.49,522.15C262.87,521.16 262.31,520.55 260.58,515.78C259.54,512.87 258.12,508.02 257.44,505.00C256.25,499.70 256.20,500.02 256.10,513.73C256.00,527.96 256.00,527.96 277.59,528.23C299.17,528.50 299.17,528.50 300.54,531.75C301.86,534.89 301.81,535.05 299.01,536.50C297.42,537.32 293.05,538.43 289.31,538.98C285.52,539.52 260.53,539.94 233.00,539.91C205.77,539.88 168.65,539.49 150.50,539.05C122.54,538.37 117.15,538.47 115.19,539.69C113.92,540.48 113.02,541.85 113.19,542.74C113.36,543.63 114.85,544.72 116.50,545.17C118.15,545.62 157.30,546.27 203.50,546.62C276.00,547.16 289.49,547.03 302.00,545.67C309.98,544.81 320.55,543.80 325.50,543.43C330.45,543.06 335.01,542.35 335.64,541.85C336.27,541.35 337.10,538.81 337.49,536.22C337.87,533.62 339.32,528.81 340.70,525.52C342.09,522.24 344.51,517.67 346.09,515.37C347.67,513.08 351.00,509.16 353.49,506.67C355.98,504.18 360.49,500.93 363.51,499.45C368.13,497.19 369.98,496.83 375.25,497.18C379.20,497.43 383.29,498.48 386.35,500.02C389.03,501.36 393.64,505.09 396.62,508.30C400.11,512.07 403.57,517.39 406.40,523.32C408.81,528.37 411.30,534.68 411.93,537.35C412.56,540.01 413.35,545.86 413.68,550.35C414.00,554.83 414.72,559.06 415.26,559.75C415.80,560.44 416.35,561.00 416.49,561.00zM420.78,532.00C417.30,532.00 416.75,531.64 415.45,528.53C414.65,526.62 414.00,524.65 414.00,524.15C414.00,523.65 413.30,522.67 412.45,521.96C411.60,521.25 411.04,519.74 411.20,518.59C411.48,516.62 412.57,516.41 430.00,515.00C448.50,513.50 448.50,513.50 448.50,500.50C448.50,493.35 448.11,472.99 447.63,455.25C446.97,430.86 447.05,423.00 447.93,423.00C448.57,423.00 449.86,424.37 450.80,426.03C452.06,428.28 453.02,428.93 454.50,428.53C455.60,428.24 495.09,427.50 542.26,426.89C610.09,426.01 628.34,426.04 629.51,427.01C630.33,427.69 630.99,428.98 630.98,429.87C630.98,430.77 630.61,432.06 630.17,432.76C629.57,433.70 616.88,434.37 578.44,435.49C550.42,436.31 512.42,437.43 494.00,437.99C475.57,438.54 459.03,439.00 457.24,439.00C453.98,439.00 453.98,439.00 454.62,475.25C454.97,495.19 455.54,511.79 455.88,512.14C456.22,512.49 473.15,511.52 493.50,509.98C513.85,508.44 535.67,506.90 542.00,506.55C548.33,506.20 554.96,505.69 556.75,505.41C559.15,505.04 560.00,505.29 560.00,506.35C560.00,507.14 559.09,510.73 557.98,514.33C556.71,518.43 555.31,521.08 554.23,521.43C553.28,521.73 535.62,523.33 515.00,524.99C494.38,526.66 465.61,528.91 451.08,530.01C436.55,531.10 422.91,532.00 420.78,532.00zM127.62,527.88C129.89,527.95 133.16,527.72 134.88,527.38C137.58,526.83 138.00,526.33 137.98,523.62C137.98,521.91 137.55,519.83 137.03,519.01C136.28,517.82 135.83,517.77 134.84,518.76C134.10,519.50 130.88,520.00 126.80,520.00C120.00,520.00 120.00,520.00 120.00,523.43C120.00,525.85 120.51,526.99 121.75,527.31C122.71,527.56 125.36,527.82 127.62,527.88zM241.67,525.77C242.86,525.89 244.55,525.73 245.42,525.39C246.41,525.01 247.00,523.58 247.00,521.52C247.00,519.72 246.39,517.74 245.64,517.11C244.65,516.30 230.91,516.05 196.39,516.24C148.50,516.50 148.50,516.50 148.50,520.50C148.50,524.50 148.50,524.50 194.00,525.02C219.03,525.30 240.48,525.64 241.67,525.77zM283.00,507.30C284.38,507.06 285.93,506.44 286.45,505.92C286.98,505.41 287.58,499.48 287.78,492.75C287.98,486.01 287.75,478.70 287.27,476.50C286.39,472.50 286.39,472.50 280.77,472.52C276.75,472.54 274.59,473.06 273.13,474.38C271.11,476.21 271.13,476.24 276.01,480.10C278.71,482.24 281.39,484.86 281.96,485.93C282.53,486.99 283.00,488.30 283.00,488.82C283.00,489.34 282.14,489.99 281.09,490.27C280.03,490.54 278.02,492.58 276.62,494.80C275.22,497.02 273.07,499.16 271.85,499.55C270.20,500.07 269.15,499.67 267.81,498.02C266.42,496.30 266.00,494.03 266.00,488.31C266.00,482.78 265.68,480.94 264.75,481.24C264.06,481.47 262.93,483.38 262.22,485.48C261.52,487.59 260.91,491.99 260.87,495.27C260.79,500.40 261.14,501.60 263.35,503.80C265.44,505.90 267.24,506.49 273.21,507.05C277.22,507.43 281.62,507.54 283.00,507.30zM201.00,504.20C224.93,504.02 245.06,503.70 245.75,503.47C246.44,503.25 247.00,501.46 247.00,499.50C247.00,497.54 246.44,495.72 245.75,495.46C245.06,495.20 222.68,495.32 196.00,495.74C147.50,496.50 147.50,496.50 147.50,500.00C147.50,503.47 147.55,503.50 152.50,504.00C155.25,504.28 177.07,504.37 201.00,504.20zM168.38,483.50C178.90,483.22 200.89,482.71 217.26,482.38C247.02,481.77 247.02,481.77 247.62,479.39C247.95,478.08 247.93,476.26 247.58,475.35C247.00,473.84 243.69,473.77 207.72,474.48C186.15,474.90 163.78,475.53 158.00,475.88C148.01,476.47 147.48,476.61 147.17,478.81C146.99,480.07 147.39,481.77 148.06,482.57C149.07,483.79 152.40,483.94 168.38,483.50zM380.63,474.00C380.43,474.00 379.98,472.31 379.64,470.25C379.30,468.19 379.02,464.25 379.03,461.50C379.03,458.75 379.47,455.82 380.00,455.00C380.66,453.98 380.97,456.76 380.98,463.75C380.99,469.39 380.83,474.00 380.63,474.00zM427.95,458.00C420.74,458.00 419.03,457.69 417.60,456.11C416.36,454.74 415.97,452.87 416.19,449.36C416.50,444.50 416.50,444.50 426.35,444.21C432.76,444.03 436.69,444.33 437.60,445.08C438.43,445.78 439.00,448.14 439.00,450.92C439.00,453.50 438.46,456.14 437.80,456.80C437.05,457.55 433.35,458.00 427.95,458.00zM370.97,444.00C362.24,444.00 358.95,443.65 358.10,442.63C357.48,441.87 356.68,436.91 356.33,431.60C355.70,421.96 355.70,421.96 359.75,420.36C363.28,418.98 363.87,418.30 364.27,415.14C364.53,413.14 366.35,403.85 368.32,394.50C370.29,385.15 373.51,370.52 375.48,362.00C377.45,353.48 380.00,343.01 381.14,338.74C382.29,334.47 383.65,330.71 384.18,330.39C384.70,330.07 385.40,330.07 385.73,330.40C386.06,330.72 386.26,332.61 386.19,334.60C386.11,336.58 384.69,345.92 383.02,355.35C381.35,364.78 379.77,373.74 379.52,375.25C379.26,376.76 379.38,378.00 379.77,377.99C380.17,377.99 382.70,368.65 385.38,357.24C388.06,345.83 390.70,335.65 391.23,334.62C392.14,332.87 393.11,332.79 405.85,333.45C413.36,333.84 419.86,334.51 420.31,334.94C420.76,335.37 422.00,346.47 423.08,359.61C424.16,372.75 425.53,389.73 426.12,397.34C426.72,404.95 426.91,413.13 426.55,415.51C426.19,417.89 425.35,420.29 424.68,420.85C424.01,421.41 418.51,422.27 412.48,422.76C405.62,423.32 400.43,423.30 398.66,422.70C397.09,422.17 393.33,422.00 390.30,422.31C387.27,422.62 384.56,423.11 384.27,423.40C383.99,423.68 384.02,424.61 384.35,425.47C384.84,426.76 386.14,426.91 391.97,426.37C397.03,425.90 399.00,426.04 399.00,426.88C399.00,427.52 397.30,429.95 395.22,432.27C393.14,434.60 390.83,437.72 390.08,439.20C389.33,440.69 387.36,442.38 385.71,442.95C384.05,443.53 377.42,444.00 370.97,444.00zM439.81,422.81C438.37,422.98 436.89,422.63 436.53,422.05C436.16,421.46 435.45,415.47 434.94,408.74C434.43,402.01 433.34,385.70 432.51,372.50C431.68,359.30 430.71,343.24 430.35,336.82C429.99,330.39 429.37,324.60 428.96,323.94C428.46,323.13 422.52,322.59 410.03,322.23C395.11,321.80 391.72,321.44 391.25,320.21C390.93,319.37 391.49,318.11 392.53,317.36C393.94,316.32 399.14,316.00 414.44,316.00C425.47,316.00 443.29,316.67 454.03,317.48C464.77,318.29 482.32,319.86 493.03,320.98C503.74,322.10 528.92,324.59 549.00,326.51C569.08,328.44 590.59,330.68 596.82,331.49C603.04,332.30 608.55,333.22 609.07,333.54C609.58,333.86 610.00,334.77 610.00,335.56C610.00,336.57 608.82,337.00 605.99,337.00C603.79,337.00 590.40,336.08 576.24,334.95C562.08,333.82 539.70,331.80 526.50,330.46C513.30,329.12 488.01,326.57 470.30,324.80C452.58,323.03 437.76,321.91 437.35,322.32C436.94,322.72 437.64,334.86 438.89,349.28C440.15,363.70 441.75,384.63 442.46,395.79C443.16,406.95 443.44,417.52 443.08,419.29C442.57,421.80 441.86,422.57 439.81,422.81zM281.50,419.45C285.90,419.16 296.93,418.50 306.00,417.97C315.07,417.45 324.50,417.01 326.95,417.01C330.14,417.00 331.09,416.69 330.32,415.92C329.69,415.29 322.78,414.61 313.87,414.28C304.73,413.95 295.13,414.18 290.20,414.85C285.63,415.47 280.00,416.87 277.70,417.97C273.50,419.97 273.50,419.97 281.50,419.45zM555.50,412.15C546.15,412.36 536.93,412.37 535.00,412.18C533.08,411.99 530.99,411.41 530.37,410.89C529.74,410.37 528.72,407.93 528.10,405.48C527.10,401.49 526.42,400.74 521.74,398.40C518.86,396.95 515.71,395.08 514.75,394.23C513.23,392.89 513.00,390.74 513.00,377.98C513.00,364.40 513.17,363.06 515.17,360.51C516.36,359.00 518.82,357.14 520.64,356.38C522.45,355.62 525.07,355.00 526.45,355.00C528.52,355.00 529.50,353.95 531.95,349.10C533.59,345.86 536.13,342.26 537.60,341.10C539.72,339.43 541.67,339.00 547.09,339.00C550.83,339.00 556.18,339.49 558.97,340.09C562.76,340.90 564.63,341.96 566.44,344.34C567.77,346.08 569.59,350.44 570.49,354.03C572.06,360.26 572.38,360.71 577.64,364.03C580.66,365.94 583.79,368.72 584.58,370.22C585.37,371.72 586.29,376.22 586.61,380.22C586.95,384.38 586.76,388.63 586.17,390.14C585.60,391.59 583.19,394.08 580.82,395.67C576.93,398.27 576.38,399.15 575.34,404.39C574.71,407.59 573.81,410.56 573.34,410.99C572.88,411.42 564.85,411.94 555.50,412.15zM404.54,409.00C405.30,409.00 406.36,408.20 406.88,407.22C407.41,406.24 407.96,400.27 408.11,393.97C408.38,382.50 408.38,382.50 404.19,382.19C400.00,381.89 400.00,381.89 400.00,393.87C400.00,403.43 400.32,406.17 401.57,407.43C402.44,408.29 403.77,409.00 404.54,409.00zM551.06,406.00C558.65,406.00 565.99,405.58 567.35,405.06C568.71,404.54 570.05,403.30 570.33,402.31C570.60,401.31 571.12,398.79 571.47,396.69C571.98,393.66 573.02,392.24 576.56,389.75C580.85,386.72 581.00,386.44 581.00,381.35C581.00,378.46 580.50,374.99 579.89,373.65C579.27,372.30 577.05,370.42 574.94,369.47C572.83,368.52 570.22,366.79 569.14,365.62C568.05,364.46 566.41,360.59 565.49,357.02C564.58,353.46 563.41,349.77 562.90,348.82C562.39,347.87 560.29,346.62 558.24,346.05C556.18,345.48 551.88,345.01 548.68,345.01C545.49,345.00 542.06,345.43 541.07,345.96C540.09,346.49 538.35,349.09 537.20,351.75C536.06,354.40 534.31,357.30 533.31,358.19C532.32,359.08 529.58,360.37 527.24,361.06C524.89,361.76 522.49,362.91 521.90,363.62C521.17,364.50 521.05,368.83 521.54,377.04C521.99,384.57 522.69,389.27 523.38,389.45C524.00,389.60 525.85,390.14 527.50,390.64C529.96,391.38 530.86,392.55 532.50,397.13C533.60,400.20 535.12,403.46 535.87,404.36C537.02,405.74 539.47,406.00 551.06,406.00zM549.25,391.61C546.45,392.16 546.00,391.97 546.00,390.25C546.00,389.15 546.67,387.68 547.50,387.00C548.33,386.32 549.00,385.41 549.00,384.99C549.00,384.56 547.20,382.04 545.00,379.38C542.80,376.71 541.00,373.52 541.00,372.27C541.00,371.02 541.47,370.00 542.06,370.00C542.64,370.00 544.20,367.52 545.54,364.50C546.96,361.28 548.61,359.00 549.51,359.00C550.35,359.00 553.13,362.24 555.69,366.19C560.34,373.38 560.34,373.38 557.04,379.57C555.22,382.97 554.00,386.20 554.33,386.73C554.67,387.27 554.39,388.44 553.72,389.34C553.05,390.24 551.04,391.26 549.25,391.61zM207.49,356.00C207.76,356.00 209.52,352.93 211.41,349.17C213.31,345.41 216.94,339.29 219.49,335.57C222.04,331.84 223.94,328.61 223.71,328.37C223.48,328.14 219.98,329.22 215.93,330.76C210.15,332.97 208.43,334.10 207.89,336.04C207.51,337.39 207.15,342.44 207.10,347.25C207.04,352.06 207.22,356.00 207.49,356.00zM216.82,308.27C222.69,306.32 228.06,304.28 228.75,303.74C229.69,303.00 230.00,296.69 230.00,278.38C230.00,258.36 229.75,254.00 228.62,254.00C227.87,254.00 223.71,255.61 219.37,257.58C215.04,259.55 210.04,261.85 208.25,262.69C205.00,264.23 205.00,264.23 205.00,287.45C205.00,300.22 205.26,310.92 205.57,311.24C205.88,311.55 210.95,310.21 216.82,308.27zM250.25,307.94C251.49,307.91 254.97,307.10 258.00,306.15C263.50,304.43 263.50,304.43 263.76,213.21C263.90,163.05 263.71,122.00 263.34,122.00C262.97,122.00 260.15,123.40 257.08,125.12C254.01,126.83 250.71,128.93 249.75,129.77C248.11,131.21 248.00,136.77 248.00,219.65C248.00,308.00 248.00,308.00 250.25,307.94zM595.25,304.87C599.00,305.00 599.00,305.00 599.00,295.02C599.00,285.48 598.90,285.02 596.75,284.55C595.51,284.29 589.42,283.32 583.21,282.41C577.00,281.50 571.60,281.07 571.21,281.47C570.82,281.86 570.61,286.50 570.75,291.76C570.89,297.02 571.12,301.45 571.27,301.60C571.42,301.75 576.03,302.52 581.52,303.31C587.01,304.10 593.19,304.80 595.25,304.87zM277.42,301.70C279.66,301.42 290.49,299.56 301.48,297.58C312.48,295.59 331.15,292.65 342.98,291.04C354.82,289.42 374.62,287.13 387.00,285.94C404.42,284.26 413.23,283.90 426.00,284.34C435.99,284.68 450.58,286.07 463.00,287.85C474.27,289.48 486.76,291.12 490.75,291.50C498.00,292.20 498.00,292.20 498.06,276.35C498.09,267.63 498.13,237.55 498.14,209.50C498.16,181.45 498.13,157.70 498.09,156.73C498.02,155.39 497.44,155.10 495.68,155.55C494.40,155.87 489.56,155.45 484.93,154.62C480.29,153.80 466.60,151.05 454.50,148.52C442.40,145.99 421.70,141.71 408.50,139.00C395.30,136.29 377.30,132.50 368.50,130.59C359.70,128.68 339.45,124.19 323.50,120.62C307.55,117.05 291.48,113.60 287.80,112.97C282.67,112.08 280.25,112.09 277.49,113.00C275.25,113.74 273.53,115.11 272.96,116.60C272.42,118.04 272.31,155.97 272.69,210.61C273.33,302.22 273.33,302.22 277.42,301.70zM546.75,298.90C551.00,299.00 551.00,299.00 551.00,288.00C551.00,281.95 550.66,276.99 550.25,276.97C549.84,276.96 543.05,275.90 535.16,274.62C524.59,272.90 520.71,272.60 520.38,273.46C520.13,274.11 520.06,279.33 520.21,285.07C520.50,295.50 520.50,295.50 531.50,297.15C537.55,298.05 544.41,298.84 546.75,298.90zM338.21,271.88C337.27,271.82 330.12,270.98 322.32,270.02C314.52,269.06 307.43,268.00 306.57,267.67C305.21,267.14 305.00,264.28 305.00,246.65C305.00,231.54 305.32,225.98 306.25,225.23C307.10,224.53 310.74,224.63 317.67,225.54C323.27,226.27 330.62,227.41 334.00,228.08C339.02,229.07 340.33,229.74 341.08,231.71C341.59,233.04 342.00,241.78 342.00,251.13C342.00,260.94 341.56,268.95 340.96,270.07C340.40,271.13 339.16,271.95 338.21,271.88zM473.50,270.66C472.40,270.75 467.90,270.07 463.50,269.16C455.50,267.50 455.50,267.50 455.22,255.08C455.06,248.25 455.31,242.29 455.76,241.84C456.21,241.39 460.33,241.68 464.91,242.48C469.48,243.29 473.87,244.48 474.65,245.12C475.75,246.04 476.00,248.93 475.78,258.40C475.52,269.68 475.36,270.51 473.50,270.66zM331.75,264.88C334.48,264.98 335.01,264.64 335.04,262.75C335.06,261.51 335.17,255.03 335.29,248.34C335.40,241.65 335.27,235.94 334.98,235.65C334.70,235.36 330.09,234.42 324.74,233.56C319.40,232.70 313.67,232.00 312.01,232.00C309.00,232.00 309.00,232.00 309.00,246.46C309.00,259.74 309.16,261.01 310.93,261.96C312.00,262.53 315.04,263.05 317.68,263.12C320.33,263.18 323.85,263.58 325.50,264.00C327.15,264.42 329.96,264.82 331.75,264.88zM322.39,260.59C320.77,261.03 320.13,260.61 319.65,258.83C319.31,257.55 319.02,254.11 319.01,251.20C319.00,245.89 319.00,245.89 323.75,246.20C328.50,246.50 328.50,246.50 328.80,253.25C329.08,259.71 328.99,260.00 326.80,260.01C325.53,260.02 323.55,260.28 322.39,260.59zM595.75,258.88C599.00,259.00 599.00,259.00 598.98,236.75C598.98,224.51 598.64,214.01 598.23,213.41C597.83,212.81 593.45,209.41 588.50,205.85C583.55,202.29 567.58,191.27 553.00,181.34C538.42,171.42 525.52,162.79 524.32,162.15C523.11,161.52 521.65,161.00 521.05,161.00C520.30,161.00 520.06,173.42 520.24,202.70C520.50,244.39 520.50,244.39 535.50,247.10C543.75,248.59 550.84,249.60 551.25,249.34C551.66,249.09 552.00,238.84 552.00,226.57C552.00,214.29 551.72,202.85 551.38,201.14C551.04,199.43 550.37,198.27 549.89,198.57C549.41,198.87 546.88,197.65 544.26,195.87C541.64,194.08 537.71,191.24 535.52,189.56C533.33,187.88 530.12,185.15 528.38,183.50C526.17,181.41 525.03,179.22 524.60,176.25C524.19,173.50 524.36,172.00 525.05,172.00C525.65,172.00 527.11,172.51 528.32,173.14C529.52,173.77 536.12,178.35 543.00,183.33C549.88,188.31 558.54,194.60 562.25,197.33C565.96,200.05 569.03,202.78 569.06,203.39C569.10,204.00 569.07,215.64 569.00,229.25C568.94,242.86 569.02,254.02 569.19,254.05C569.36,254.08 574.67,255.16 581.00,256.44C587.33,257.72 593.96,258.82 595.75,258.88zM435.25,243.29C434.84,243.51 428.74,242.75 421.71,241.60C413.23,240.21 408.59,238.99 407.97,238.00C407.45,237.18 407.02,230.37 407.02,222.87C407.00,213.02 407.35,208.95 408.28,208.18C409.19,207.42 412.94,207.84 421.53,209.65C428.11,211.04 434.06,212.64 434.75,213.21C435.64,213.95 436.00,218.33 436.00,228.56C436.00,236.44 435.66,243.06 435.25,243.29zM218.06,220.19C230.00,214.59 230.00,214.59 230.00,190.30C230.00,176.20 229.61,166.00 229.08,166.00C228.58,166.00 223.51,168.73 217.83,172.06C212.15,175.40 206.94,178.86 206.25,179.75C205.34,180.94 205.00,187.25 205.00,203.02C205.00,214.93 205.25,224.92 205.56,225.22C205.87,225.53 211.49,223.26 218.06,220.19zM594.15,223.41C593.66,223.71 591.30,222.63 588.88,221.02C586.47,219.41 581.58,215.40 578.00,212.10C573.47,207.92 572.05,206.08 573.32,206.05C574.32,206.02 577.25,207.43 579.82,209.18C582.39,210.93 586.24,213.83 588.37,215.63C590.50,217.43 592.87,219.79 593.63,220.88C594.40,221.98 594.63,223.11 594.15,223.41zM338.50,207.66C337.40,207.75 330.47,206.77 323.09,205.50C315.72,204.22 308.63,202.70 307.34,202.11C305.00,201.04 305.00,201.04 305.00,179.49C305.00,161.08 305.22,157.85 306.53,157.35C307.37,157.03 315.02,158.43 323.53,160.46C335.27,163.26 339.26,164.62 340.03,166.05C340.64,167.20 340.94,175.72 340.77,187.72C340.51,206.68 340.42,207.51 338.50,207.66zM329.50,197.65C332.50,197.50 332.50,197.50 332.36,188.19C332.28,183.07 331.96,178.63 331.65,178.32C331.34,178.00 326.75,176.87 321.46,175.79C316.16,174.71 311.53,174.13 311.17,174.50C310.80,174.87 310.34,179.22 310.15,184.18C309.93,189.68 310.21,193.61 310.85,194.25C311.44,194.84 315.20,195.87 319.21,196.55C323.22,197.24 327.85,197.73 329.50,197.65zM473.00,192.68C471.62,192.78 468.03,192.18 465.01,191.35C461.99,190.52 459.23,189.38 458.88,188.80C458.53,188.23 458.47,183.88 458.75,179.13C459.03,174.38 459.36,170.38 459.48,170.23C459.60,170.09 463.01,170.66 467.06,171.51C471.11,172.36 474.78,173.61 475.21,174.28C475.65,174.95 475.90,179.32 475.76,184.00C475.51,192.28 475.43,192.50 473.00,192.68zM443.00,185.66C442.18,185.76 438.01,185.06 433.75,184.10C429.50,183.13 425.78,182.12 425.51,181.84C425.23,181.56 424.71,175.20 424.35,167.69C423.76,155.48 423.87,153.99 425.37,153.41C426.29,153.06 430.07,153.52 433.77,154.45C437.47,155.37 441.53,156.79 442.78,157.61C444.99,159.04 445.05,159.50 444.78,172.28C444.55,183.12 444.23,185.51 443.00,185.66zM497.23,152.96C497.63,152.98 498.22,151.97 498.54,150.71C498.85,149.45 498.97,145.74 498.81,142.46C498.50,136.50 498.50,136.50 493.47,134.83C490.70,133.91 472.93,129.74 453.97,125.56C435.01,121.37 411.98,116.15 402.78,113.96C393.59,111.76 381.66,109.30 376.28,108.49C370.90,107.68 366.05,107.03 365.50,107.05C364.95,107.08 366.07,107.86 368.00,108.80C370.05,109.81 371.62,111.37 371.80,112.59C371.96,113.74 371.40,115.25 370.55,115.96C369.50,116.83 369.00,116.88 369.00,116.12C369.00,115.51 368.60,115.00 368.11,115.00C367.63,115.00 367.03,116.35 366.79,117.99C366.37,120.81 366.66,121.10 371.66,122.98C374.59,124.07 391.27,128.09 408.74,131.91C426.21,135.73 444.10,139.58 448.50,140.47C452.90,141.36 464.38,143.93 474.00,146.17C483.62,148.41 492.62,150.85 494.00,151.58C495.38,152.32 496.83,152.94 497.23,152.96z" />

</svg>
