<?xml version="1.0" standalone="no"?>
<!DOCTYPE svg PUBLIC "-//W3C//DTD SVG 20010904//EN"
 "http://www.w3.org/TR/2001/REC-SVG-20010904/DTD/svg10.dtd">
<svg version="1.0" xmlns="http://www.w3.org/2000/svg"
 width="512.000000pt" height="512.000000pt" viewBox="0 0 512.000000 512.000000"
 preserveAspectRatio="xMidYMid meet">
<metadata>
Created by potrace 1.16, written by Peter Selinger 2001-2019
</metadata>
<g transform="translate(0.000000,512.000000) scale(0.100000,-0.100000)"
fill="#000000" stroke="none">
<path d="M0 5109 c0 -5 22 -19 50 -31 l50 -21 0 -69 0 -68 -41 20 c-22 12 -45
20 -51 18 -6 -2 13 -15 43 -27 452 -194 889 -399 889 -418 0 -7 -3 -13 -6 -13
-3 0 -94 39 -202 86 -620 273 -732 318 -732 296 0 -13 43 -35 168 -86 216 -89
402 -172 416 -186 6 -6 -61 19 -149 55 -376 156 -427 176 -431 172 -7 -7 588
-251 608 -250 16 2 160 -56 271 -107 27 -13 38 -52 18 -64 -5 -3 -72 23 -150
58 -77 35 -149 62 -158 60 -10 -3 -52 9 -93 26 -277 116 -484 200 -491 200 -5
0 -9 -18 -9 -39 l0 -40 78 -29 c42 -16 124 -47 182 -67 58 -21 167 -64 244
-97 100 -43 145 -58 164 -53 16 4 52 -4 98 -21 l74 -27 0 -204 c0 -189 -1
-204 -17 -201 -16 3 -18 20 -21 171 -1 98 1 167 7 167 5 0 7 9 4 19 -3 13 -28
29 -70 46 -36 14 -67 25 -68 23 -1 -2 -5 -19 -9 -39 l-6 -35 55 -18 55 -17 0
-114 0 -114 -47 14 c-27 8 -51 15 -55 15 -5 0 -8 -24 -8 -53 l0 -53 73 -22
c119 -35 126 -36 132 -9 3 12 5 115 3 227 l-3 205 -85 35 c-47 20 -101 46
-120 58 -19 12 -38 22 -42 22 -5 0 -8 4 -8 9 0 6 68 -22 151 -62 137 -65 150
-73 146 -94 -2 -13 0 -26 4 -29 5 -3 9 -457 9 -1014 0 -893 -2 -1009 -15
-1004 -11 5 -15 21 -15 60 0 30 -4 54 -10 54 -6 0 -10 118 -10 335 l0 334 -37
10 c-21 6 -105 26 -188 45 -82 19 -217 51 -299 71 -82 19 -153 34 -158 33 -5
-2 138 -39 319 -81 381 -91 353 -83 353 -97 0 -6 -8 -9 -17 -6 -29 8 -775 194
-810 201 -38 8 -47 -11 -11 -20 13 -3 137 -32 277 -65 139 -32 254 -60 255
-62 0 -2 -1 -145 -4 -319 -5 -311 -5 -316 -25 -309 -19 7 -20 16 -20 310 l0
303 -135 32 c-74 17 -146 34 -160 38 l-25 6 3 -94 c3 -93 4 -95 28 -95 36 0
257 -50 269 -61 5 -6 5 -9 -1 -9 -11 0 -252 49 -277 56 -16 5 -17 -10 -17
-214 l0 -219 173 -35 c94 -19 179 -37 187 -39 13 -3 15 38 18 322 l2 326 137
-33 c75 -19 140 -40 145 -46 11 -18 -3 -612 -15 -619 -5 -4 0 -10 12 -14 52
-16 7 -12 -109 9 -214 40 -659 129 -718 143 -15 3 -22 1 -22 -9 0 -16 7 -17
470 -103 409 -76 400 -74 400 -91 0 -8 -7 -14 -16 -14 -36 0 -645 112 -737
135 -54 14 -102 25 -107 25 -20 0 -9 -18 15 -24 25 -6 25 -7 25 -121 l0 -115
-25 0 c-21 0 -25 -5 -25 -27 l0 -28 20 25 c10 14 22 21 26 17 4 -4 10 -84 12
-177 l5 -170 -34 -1 c-31 -1 -32 -2 -9 -8 l25 -7 3 -311 2 -312 -23 -25 c-13
-14 -24 -39 -25 -59 l-2 -35 372 5 c205 3 405 8 445 10 68 5 71 4 66 -15 -3
-12 -12 -23 -22 -25 -14 -4 -14 -5 2 -6 9 0 17 -7 17 -15 0 -15 -84 -21 -525
-32 -132 -3 -267 -10 -300 -14 -34 -5 39 -5 165 -2 280 9 641 7 698 -3 l42 -7
0 62 0 63 112 -7 c71 -4 115 -11 120 -19 5 -9 -6 -14 -40 -18 l-47 -6 48 -1
c79 -3 53 -22 -30 -23 -43 0 -96 -4 -118 -8 -29 -6 -9 -8 73 -7 l114 1 13 -37
c7 -21 10 -38 7 -38 -16 0 36 -42 64 -52 19 -7 34 -15 34 -19 0 -3 -66 -9
-147 -13 -82 -4 -283 -16 -448 -26 -165 -11 -383 -24 -485 -30 -183 -11 -237
-17 -228 -25 4 -5 126 2 438 24 80 6 303 20 495 31 193 11 362 22 378 25 21 4
27 1 27 -14 0 -16 -12 -19 -107 -24 -233 -14 -444 -29 -811 -57 -210 -17 -391
-30 -402 -30 -13 0 -20 -7 -20 -20 0 -14 7 -20 22 -20 61 0 1201 92 1252 101
32 6 66 7 75 3 11 -6 0 -10 -34 -14 l-50 -7 53 -1 c28 -1 52 -6 52 -12 0 -5
14 -25 30 -44 l31 -35 -43 -5 c-24 -4 -172 -18 -330 -31 -422 -37 -433 -39
-268 -48 74 -4 232 -15 350 -23 253 -19 746 -14 1030 10 96 9 234 16 305 16
126 1 177 7 240 28 28 10 398 48 1050 108 143 13 283 29 310 34 28 6 77 15
110 20 55 8 53 9 -24 4 -75 -5 -83 -4 -77 11 3 9 9 28 12 41 6 22 12 24 68 26
l61 2 -52 3 c-29 2 -53 6 -53 9 0 2 6 20 14 38 l14 33 183 6 c177 5 778 53
788 62 2 3 2 7 0 10 -6 5 -236 -7 -554 -30 -115 -8 -238 -16 -272 -17 l-61 -3
31 27 32 27 285 2 c157 1 344 4 415 8 72 4 -52 5 -274 2 l-405 -4 22 30 c12
17 22 36 22 42 0 7 40 11 120 11 116 0 120 -1 120 -21 0 -21 -2 -22 -112 -16
-79 4 -101 3 -73 -4 22 -5 97 -12 168 -15 l127 -7 0 32 c0 30 1 32 33 26 27
-4 326 -25 364 -25 7 0 13 4 13 9 0 5 -44 12 -97 15 -157 10 -183 15 -176 32
4 11 31 14 139 14 l134 0 0 35 c0 34 -1 35 -40 35 l-40 0 0 254 0 255 38 4
c20 2 -17 4 -83 3 l-120 -1 0 40 0 40 118 6 c64 3 120 9 125 13 4 4 -35 5 -85
1 -82 -7 -93 -6 -93 9 0 13 11 16 53 16 67 0 127 10 127 21 0 5 -16 9 -35 9
-28 0 -35 4 -35 19 0 15 8 21 33 24 l32 4 -32 1 -33 2 0 145 c0 144 0 145 23
145 12 0 29 5 37 10 11 8 1 10 -34 8 l-49 -3 2 -142 c1 -78 -1 -163 -4 -188
-7 -45 -8 -45 -46 -45 l-39 0 0 239 0 239 90 8 c50 3 90 9 90 13 0 3 -20 5
-45 3 -38 -3 -44 -2 -39 12 4 10 18 16 39 16 19 0 37 5 40 10 4 6 -10 10 -34
10 -34 0 -41 3 -41 20 0 11 4 20 8 20 4 0 6 56 4 125 -3 88 -1 125 7 125 6 0
11 -9 11 -21 0 -15 5 -20 23 -17 17 2 23 11 25 37 3 33 3 33 -32 27 -35 -7
-36 -6 -36 22 0 26 4 31 35 36 53 10 44 30 -10 22 l-45 -7 0 60 c0 65 -2 63
70 74 23 4 22 4 -5 7 -29 2 -29 2 -5 9 25 7 25 8 28 130 l3 123 -26 -4 c-16
-4 -24 -1 -22 6 2 6 13 12 25 14 19 3 22 10 22 53 0 51 -4 54 -47 43 -23 -6
-23 -8 -23 -190 0 -118 -4 -184 -10 -184 -7 0 -9 81 -8 237 l3 237 45 13 45
13 -48 -6 c-58 -6 -64 11 -7 21 59 10 65 29 6 21 -37 -6 -46 -4 -46 8 0 8 7
19 16 24 13 7 16 33 17 148 2 125 4 139 20 140 12 1 13 1 2 -3 -11 -3 -15 -18
-15 -52 0 -46 1 -48 25 -43 25 4 26 7 24 64 l-2 59 -29 -6 c-17 -4 -28 -2 -28
4 0 7 14 14 30 18 17 3 29 8 26 10 -2 3 -18 2 -35 -2 l-31 -7 0 -156 c0 -105
-4 -152 -10 -142 -5 8 -10 90 -10 181 l0 166 45 13 c27 7 45 18 45 27 0 11 -6
12 -23 7 -12 -5 -34 -8 -49 -9 l-28 0 0 -232 0 -233 -27 -6 c-16 -3 -36 -8
-45 -11 -17 -4 -18 11 -20 196 -1 111 -2 218 -2 239 -1 36 0 37 54 54 30 10
75 22 99 28 23 6 41 14 38 16 -4 5 -69 -11 -179 -42 -13 -4 -18 0 -18 15 0 11
8 22 17 25 10 2 52 14 93 26 41 12 79 26 85 31 5 5 -14 2 -43 -6 -29 -8 -75
-22 -102 -29 -28 -8 -50 -11 -50 -6 0 5 39 21 87 35 49 14 94 28 101 30 14 5
17 105 3 105 -5 0 -22 -5 -37 -10 -21 -8 -29 -8 -35 2 -6 9 5 18 39 30 50 18
39 24 -16 9 l-32 -10 0 208 0 208 45 13 c25 7 45 17 45 22 0 5 -8 7 -19 3 -10
-3 -115 -35 -232 -71 -118 -36 -224 -72 -236 -80 -23 -14 -23 -17 -21 -207 l2
-192 6 192 c3 105 8 194 11 197 7 7 265 86 280 86 6 0 8 -84 7 -207 l-3 -207
-30 -8 c-16 -4 -33 -4 -38 1 -5 5 -41 -2 -80 -14 -52 -16 -71 -26 -69 -37 1
-9 -7 -18 -20 -21 -27 -8 -38 1 -18 14 12 8 9 9 -10 7 -22 -3 -25 -8 -28 -53
-2 -32 -9 -55 -19 -62 -43 -33 -43 -34 -46 405 l-2 417 -3 -453 c-1 -291 -6
-460 -12 -473 -8 -14 -7 -25 5 -41 12 -17 15 -51 15 -150 l0 -128 -60 30 c-33
16 -68 30 -79 30 -11 0 -41 22 -67 50 -26 27 -55 52 -64 55 -18 6 -20 13 -39
115 -10 52 -93 271 -114 298 -6 8 -14 9 -21 3 -17 -14 -226 -91 -247 -91 -13
0 -19 7 -19 24 0 19 -15 31 -79 67 -44 24 -86 55 -93 68 -7 13 -13 50 -13 82
0 33 -3 59 -7 59 -5 0 -8 -19 -8 -42 0 -26 -6 -47 -17 -58 -16 -15 -27 -10
-157 68 -96 57 -146 82 -160 78 -11 -3 -28 2 -38 10 -10 10 -22 13 -30 8 -7
-5 -20 -7 -29 -6 -9 2 -21 -4 -28 -12 -6 -7 -21 -12 -31 -9 -16 4 -20 0 -20
-20 0 -14 -4 -29 -10 -32 -5 -3 -10 2 -10 11 0 14 -3 15 -12 6 -7 -7 -13 -58
-16 -134 -2 -71 -9 -129 -16 -137 -6 -8 -26 -20 -44 -28 -31 -13 -36 -12 -105
24 -70 37 -72 39 -75 80 -2 23 -8 45 -15 50 -7 5 -71 37 -144 72 l-131 65 -64
-33 c-35 -19 -84 -47 -110 -63 -45 -28 -48 -32 -48 -74 0 -42 -2 -44 -50 -69
-58 -30 -78 -31 -96 -7 -12 16 -13 16 -14 0 0 -36 -65 -34 -83 3 -7 13 -20 25
-29 27 -9 2 -56 -16 -105 -39 -80 -38 -90 -41 -118 -29 -55 22 -62 22 -99 -2
-34 -22 -36 -26 -36 -80 0 -53 -2 -59 -30 -73 -27 -14 -29 -20 -32 -78 -3 -58
-5 -62 -28 -65 -14 -2 -33 -12 -43 -23 -9 -10 -40 -28 -67 -40 l-50 -21 0
-292 c0 -160 3 -422 7 -582 l6 -291 51 13 c28 8 52 14 54 14 1 0 2 -22 2 -49
l0 -50 -55 -12 -55 -12 0 -213 c0 -131 -4 -215 -10 -219 -6 -3 -10 -43 -10
-89 0 -93 -14 -132 -49 -139 -22 -4 -23 -3 -18 37 3 22 8 50 12 61 5 15 4 17
-3 6 -6 -8 -50 -21 -104 -30 l-93 -16 -3 -36 -3 -36 -100 -12 c-147 -16 -137
-19 -134 37 3 64 13 86 31 71 12 -10 14 3 14 80 0 74 -3 91 -15 91 -8 0 -15 8
-15 18 0 14 13 21 58 30 79 16 84 16 80 -10 -3 -20 -10 -23 -50 -26 l-48 -3 2
-102 2 -102 3 90 c2 49 8 94 14 100 7 7 8 -21 3 -84 l-7 -93 41 4 c60 5 52 -8
-9 -16 -28 -4 -49 -9 -46 -12 6 -6 268 33 276 41 2 3 -1 5 -7 5 -8 0 -12 27
-13 83 -1 59 -4 74 -9 52 -7 -28 -8 -27 -9 13 0 23 4 42 9 42 6 0 10 20 10 45
0 37 -3 45 -17 44 -22 -1 -72 -17 -58 -18 6 -1 9 -51 7 -136 -3 -124 -5 -135
-22 -135 -10 0 -25 -3 -34 -6 -14 -6 -16 32 -16 381 l0 387 -22 -6 c-13 -3
-29 -6 -35 -6 -9 0 -13 -22 -13 -76 l0 -76 30 6 31 6 -2 -46 c-2 -37 -7 -48
-26 -55 -28 -10 -35 -37 -31 -119 3 -64 3 -65 31 -62 25 3 27 1 27 -36 l0 -39
-57 -12 c-32 -7 -66 -15 -77 -18 -12 -3 -16 -1 -12 6 4 6 0 11 -8 11 -14 0
-16 32 -18 255 -1 140 -2 274 -3 296 l0 42 100 32 c55 18 108 36 118 40 17 7
19 3 15 -57 -2 -49 0 -64 10 -61 6 3 12 9 12 13 0 5 36 21 80 37 l79 28 3 54
3 55 48 15 c26 8 47 21 47 28 0 14 -39 34 -52 26 -4 -2 -5 10 -2 27 6 25 3 30
-13 30 -16 0 -19 -5 -15 -30 5 -32 -13 -42 -22 -12 -3 9 -5 49 -5 87 1 43 -3
71 -10 73 -20 7 -13 50 10 57 27 9 20 16 -9 8 -16 -4 -22 -13 -22 -34 0 -35
-27 -40 -33 -6 -3 21 -4 21 -15 -5 -6 -16 -18 -28 -27 -28 -12 0 -15 -15 -15
-85 0 -82 -11 -109 -26 -63 -6 21 -7 21 -21 -5 -16 -32 -27 -36 -18 -7 4 14 2
20 -8 20 -8 0 -22 9 -31 19 -13 15 -14 20 -4 24 8 4 7 6 -4 6 -10 1 -18 -3
-18 -9 0 -5 -5 -10 -11 -10 -5 0 -7 5 -4 10 3 6 -3 10 -14 10 -12 0 -21 -6
-21 -14 0 -7 -7 -19 -15 -26 -8 -7 -15 -23 -15 -35 0 -13 -7 -25 -15 -29 -8
-3 -15 -18 -15 -34 0 -20 -7 -33 -24 -42 -14 -7 -27 -22 -29 -34 -2 -12 -5
353 -6 811 -1 823 -1 832 19 843 13 7 20 21 20 39 0 25 -6 31 -52 48 l-53 20
-3 76 -3 75 -89 39 c-50 22 -87 42 -84 46 9 9 -37 36 -98 57 -30 10 -168 71
-307 135 -138 63 -258 115 -266 115 -8 0 -15 -5 -15 -11z m379 -184 c175 -80
171 -77 171 -141 0 -30 -3 -54 -7 -54 -5 0 -71 28 -148 63 l-140 62 -6 65 -6
65 -1 -62 -2 -62 -57 26 c-32 15 -61 31 -65 37 -4 6 -8 37 -8 68 l0 57 73 -33
c39 -18 128 -59 196 -91z m274 -104 c5 -5 6 -38 2 -74 l-7 -65 -39 16 -39 15
0 74 0 73 38 -15 c20 -9 41 -20 45 -24z m106 -72 l71 -32 0 -58 c0 -33 -3 -59
-7 -59 -4 0 -42 16 -85 37 -63 29 -78 40 -78 58 0 35 12 85 20 85 4 0 39 -14
79 -31z m4259 -285 l-3 -207 -42 -12 -43 -13 0 209 0 208 33 10 c61 18 58 29
55 -195z m-1751 -26 c-3 -8 -6 -5 -6 6 -1 11 2 17 5 13 3 -3 4 -12 1 -19z
m-27 -8 c0 -5 -5 -10 -11 -10 -5 0 -7 5 -4 10 3 6 8 10 11 10 2 0 4 -4 4 -10z
m84 -22 c3 -13 6 -38 6 -56 0 -28 5 -35 30 -43 28 -10 30 -14 30 -64 0 -58 8
-50 -97 -92 -10 -4 -13 27 -13 136 0 131 1 141 19 141 11 0 21 -9 25 -22z
m-55 -138 c0 -104 -3 -130 -14 -130 -16 0 -20 108 -9 208 11 96 24 53 23 -78z
m241 48 c194 -110 311 -181 306 -185 -2 -2 -22 5 -45 16 -53 28 -64 27 -59 -4
6 -30 -5 -32 -32 -5 -11 11 -26 20 -34 20 -7 0 -16 9 -19 19 -5 21 -39 47
-181 136 -53 33 -96 66 -96 74 0 18 14 12 160 -71z m-800 -3 c124 -62 130 -67
130 -95 l0 -31 -47 28 c-27 15 -61 35 -77 44 -31 19 -56 15 -56 -7 0 -18 -3
-18 -51 6 -39 20 -40 22 -38 70 2 28 4 50 6 50 2 0 62 -29 133 -65z m-156 -27
c6 -65 4 -78 -8 -78 -11 0 -15 17 -18 75 -2 44 1 77 7 79 13 4 11 11 19 -76z
m836 41 c0 -6 -7 -8 -16 -5 -9 3 -18 6 -20 6 -2 0 -4 7 -4 15 0 13 4 14 20 5
11 -6 20 -16 20 -21z m116 -80 c92 -60 130 -93 57 -49 -21 13 -66 38 -100 57
-35 19 -63 39 -63 44 0 15 8 11 106 -52z m157 41 c3 -11 1 -20 -4 -20 -5 0 -9
9 -9 20 0 11 2 20 4 20 2 0 6 -9 9 -20z m-1040 -50 c20 -8 37 -20 37 -27 0
-13 -26 -7 -71 17 -17 10 -29 36 -11 28 4 -2 24 -10 45 -18z m837 0 c34 -19
34 -19 8 -20 -36 0 -58 9 -58 26 0 18 8 17 50 -6z m1558 -17 c-2 -11 -20 -21
-51 -29 -42 -11 -47 -10 -47 5 0 12 13 21 38 28 55 15 64 15 60 -4z m-2600
-28 c-2 -11 -41 -38 -93 -66 -49 -26 -95 -52 -101 -57 -7 -7 -11 -224 -13
-708 l-2 -698 -21 -23 c-12 -13 -25 -23 -29 -23 -5 0 -10 73 -12 163 l-3 162
-2 -172 c-2 -154 -4 -172 -19 -177 -10 -2 -79 -17 -153 -31 -74 -15 -160 -32
-190 -40 -30 -7 -70 -15 -88 -19 l-32 -6 2 208 3 207 40 13 c50 17 366 112
371 112 2 0 4 -7 4 -15 0 -8 -14 -18 -32 -23 l-33 -8 -3 -158 c-2 -147 -1
-157 15 -152 10 3 30 8 46 12 l27 6 0 179 c0 119 -4 179 -11 179 -5 0 -102
-29 -214 -65 -113 -36 -207 -65 -210 -65 -3 0 -5 8 -5 18 0 15 36 30 208 82
278 85 279 85 284 121 3 16 1 32 -4 35 -4 3 -8 1 -8 -4 0 -5 -9 -12 -20 -15
-19 -5 -20 0 -20 130 l0 134 -42 -25 c-23 -14 -46 -33 -50 -43 -6 -15 -7 -15
-7 5 -1 22 -8 26 -33 17 -10 -4 -12 -34 -10 -134 3 -122 2 -129 -17 -134 -20
-5 -21 -1 -21 120 0 110 -2 124 -16 119 -9 -3 -20 -6 -25 -6 -4 0 -10 -60 -11
-132 -3 -117 -5 -133 -20 -136 -16 -3 -18 5 -18 67 l0 71 -27 -5 -28 -5 28 12
c24 10 27 17 27 56 0 43 0 44 -30 37 l-31 -7 3 68 3 69 120 42 c66 24 139 50
163 59 l42 16 0 74 c0 41 -2 74 -5 74 -2 0 -14 -5 -27 -10 -21 -10 -23 -16
-20 -75 3 -42 0 -65 -7 -65 -7 0 -11 26 -11 69 l0 70 35 12 c34 13 35 15 35
66 0 29 -2 53 -5 53 -3 0 -24 -9 -45 -20 l-40 -20 0 -124 c0 -115 -1 -124 -20
-129 -19 -5 -20 0 -20 120 0 115 -1 125 -17 118 -10 -4 -30 -11 -45 -17 l-27
-10 -3 -126 c-3 -111 -5 -127 -20 -130 -13 -3 -18 3 -18 21 0 13 -3 38 -6 55
-6 31 -7 31 -39 17 -19 -7 -36 -11 -39 -7 -3 3 -6 -85 -6 -196 0 -171 -2 -201
-14 -196 -8 3 -23 1 -33 -4 -15 -9 -17 -21 -14 -81 2 -45 -1 -71 -8 -71 -10 0
-21 349 -11 355 3 2 2 88 -2 192 -4 103 -5 195 -2 204 2 8 35 30 74 49 38 18
66 38 63 43 -3 6 -1 7 5 3 6 -4 34 5 63 19 28 15 58 24 66 21 8 -3 12 -2 9 2
-3 5 15 18 40 30 46 23 71 29 44 12 -10 -7 -11 -10 -2 -10 7 0 15 7 18 15 4 8
10 12 15 9 5 -3 9 -1 9 3 0 11 70 37 78 29 3 -4 1 -10 -4 -15 -15 -13 -242
-116 -345 -156 -51 -20 -96 -38 -99 -42 -15 -16 187 62 336 131 56 25 104 46
107 46 4 0 8 -82 10 -182 l2 -183 3 225 c1 124 6 230 10 236 4 6 18 17 32 24
14 7 41 26 60 41 19 15 61 40 93 56 31 16 56 32 54 35 -2 3 0 2 6 -2 5 -4 7
-16 5 -25z m151 -24 c52 -23 100 -40 107 -37 7 3 14 20 16 38 3 30 6 33 33 32
17 -1 110 -40 206 -86 l176 -85 2 -73 c1 -56 -1 -71 -11 -67 -7 3 -87 39 -178
80 l-165 75 -3 64 c-2 34 -8 68 -14 73 -7 7 -9 -10 -5 -58 2 -37 2 -67 -2 -65
-4 2 -73 30 -154 63 -127 52 -147 63 -147 82 0 26 -6 28 139 -36z m69 11 c5
-15 -8 -15 -42 -2 -14 5 -26 16 -26 25 0 13 4 13 32 2 17 -7 33 -18 36 -25z
m2196 19 c3 -5 -16 -14 -42 -20 -26 -7 -55 -14 -64 -17 -10 -3 -18 -1 -18 4 0
5 24 16 53 24 66 20 65 20 71 9z m-666 -95 c18 -44 30 -81 28 -84 -6 -5 -29
11 -86 60 l-43 38 28 40 c16 22 31 37 35 33 4 -4 21 -44 38 -87z m-724 68 c3
-9 6 -104 6 -211 0 -227 -12 -201 126 -267 l91 -43 7 -73 c6 -74 17 -100 41
-100 9 0 13 -29 13 -111 0 -99 -1 -110 -16 -104 -85 34 -211 75 -227 74 -17 0
191 -83 303 -121 27 -10 32 -16 32 -45 0 -39 -19 -44 -50 -13 -11 11 -20 16
-20 11 0 -5 -9 -7 -20 -4 -19 5 -20 0 -20 -181 0 -179 -1 -186 -20 -186 -19 0
-20 7 -20 184 l0 184 -42 15 c-24 8 -51 18 -60 22 -17 7 -18 -6 -18 -179 0
-172 -1 -185 -17 -179 -10 3 -15 3 -12 -1 6 -6 144 -55 266 -94 37 -12 53 -22
53 -34 0 -10 -2 -18 -5 -18 -3 0 -59 15 -123 34 -136 39 -184 50 -162 38 8 -5
75 -26 148 -48 73 -21 129 -40 124 -42 -5 -1 -74 15 -153 36 -79 22 -168 45
-196 52 l-53 12 0 704 c0 406 4 704 9 704 5 0 12 -7 15 -16z m172 -24 c52 -22
124 -57 159 -76 l65 -36 0 31 0 31 50 -31 c57 -35 68 -48 49 -59 -7 -5 -28 -1
-50 10 -43 22 -49 16 -49 -51 0 -21 -2 -39 -3 -39 -2 0 -28 13 -58 30 -30 16
-57 30 -61 30 -4 0 -9 -76 -10 -170 l-3 -169 -109 50 c-60 27 -115 54 -123 60
-10 9 -13 59 -13 220 l0 209 31 0 c16 0 73 -18 125 -40z m-1536 20 c0 -5 -9
-10 -20 -10 -11 0 -20 5 -20 10 0 6 9 10 20 10 11 0 20 -4 20 -10z m590 -5 c0
-8 -4 -15 -10 -15 -5 0 -7 7 -4 15 4 8 8 15 10 15 2 0 4 -7 4 -15z m-253 -71
c-2 -3 -12 -2 -21 2 -21 8 -21 40 2 53 14 8 17 5 20 -21 2 -16 1 -32 -1 -34z
m333 -68 l305 -132 1 -530 c0 -291 -2 -493 -5 -449 l-5 80 -6 -79 c-3 -51 -10
-81 -17 -84 -9 -2 -13 10 -13 40 l0 44 -186 48 c-135 35 -189 45 -197 37 -8
-8 -6 -11 9 -11 10 0 36 -5 57 -11 l37 -10 0 -79 0 -80 -49 0 c-49 0 -50 1
-54 33 -4 31 -4 31 -5 -5 -2 -35 -4 -38 -32 -38 l-29 0 6 98 c3 53 10 102 15
108 6 8 -13 17 -64 29 -40 10 -77 21 -81 25 -4 4 -7 45 -5 92 l3 86 90 -24
c93 -24 141 -31 117 -15 -10 6 -12 39 -10 139 2 73 0 132 -4 132 -5 0 -8 68
-8 150 0 83 2 150 4 150 3 0 16 -4 30 -10 25 -9 25 -11 28 -131 l3 -122 35
-12 c19 -7 45 -15 58 -19 l23 -8 -3 128 -3 128 -150 52 c-82 29 -154 53 -158
53 -4 1 -6 -56 -5 -125 l3 -126 48 -19 47 -19 0 120 c0 102 2 119 15 114 12
-5 15 -32 15 -155 l0 -148 -57 20 c-31 10 -60 19 -65 19 -4 0 -8 -58 -8 -128
l0 -129 45 -10 45 -10 0 102 0 103 -35 6 c-33 6 -53 22 -42 32 3 3 23 0 46 -7
l41 -12 0 -113 c0 -62 -4 -115 -9 -118 -5 -3 -39 2 -75 11 l-66 18 0 347 c0
192 1 348 3 348 2 0 26 -11 54 -25 28 -13 63 -27 77 -31 26 -6 26 -6 26 53 l0
58 -50 18 c-27 10 -50 22 -50 28 0 12 35 3 68 -18 13 -8 26 -12 29 -9 6 5 -90
56 -107 56 -6 0 -10 -25 -10 -60 0 -35 -4 -60 -10 -60 -6 0 -12 6 -15 13 -8
27 -15 187 -8 186 4 0 145 -60 313 -133z m-680 73 c0 -19 -5 -29 -15 -29 -11
0 -15 11 -15 41 0 36 2 40 15 29 8 -7 15 -25 15 -41z m1698 32 c23 -12 38 -27
39 -39 2 -19 1 -19 -37 2 -22 11 -41 29 -44 38 -5 22 -4 22 42 -1z m-1918 -21
c22 -11 40 -23 40 -26 0 -6 -34 0 -64 12 -13 5 -16 -8 -18 -87 -2 -63 -7 -94
-15 -97 -10 -3 -13 20 -13 92 0 64 4 96 11 96 8 0 8 5 -1 15 -19 22 11 20 60
-5z m355 0 c-31 -21 -65 -26 -65 -11 0 11 46 29 75 30 16 1 14 -3 -10 -19z
m146 -67 c1 -83 8 -106 29 -93 32 20 40 11 40 -46 l0 -56 -34 6 c-22 4 -48 1
-70 -8 l-36 -15 0 -96 0 -95 35 14 35 15 0 -95 0 -96 -39 -15 -39 -15 -4 -122
c-2 -66 -4 -122 -3 -124 1 -1 21 4 43 12 l42 15 0 -78 0 -79 -40 -16 -40 -16
0 -139 0 -140 32 10 c40 11 40 11 36 0 -4 -10 -105 -91 -114 -91 -10 0 3 1374
12 1377 5 2 27 14 49 28 61 37 65 34 66 -42z m1770 20 c66 -59 69 -62 69 -93
0 -50 -13 -53 -71 -12 -53 37 -54 39 -59 95 -3 31 -2 57 1 57 4 0 31 -21 60
-47z m789 33 c0 -7 -10 -16 -22 -19 -27 -7 -32 -3 -25 18 8 19 47 20 47 1z
m-865 -84 c-3 -3 -10 -1 -15 4 -6 6 -5 22 3 43 l12 34 3 -38 c2 -20 1 -40 -3
-43z m592 56 c-3 -8 -6 -5 -6 6 -1 11 2 17 5 13 3 -3 4 -12 1 -19z m256 -28
c9 0 17 -6 17 -14 0 -7 -8 -16 -17 -19 -33 -9 -325 -87 -329 -87 -2 0 -4 6 -4
14 0 9 40 25 118 46 117 33 194 58 179 59 -4 1 -40 -8 -79 -19 -81 -22 -104
-20 -31 3 69 22 86 26 108 21 11 -2 28 -4 38 -4z m-4135 -52 c29 -11 51 -22
48 -25 -8 -8 -136 38 -136 49 0 6 8 7 18 3 9 -4 41 -16 70 -27z m1767 20 c19
-9 25 -19 25 -45 0 -35 -9 -40 -41 -23 -13 8 -19 21 -19 45 0 39 0 39 35 23z
m1669 -130 c11 -10 23 -18 27 -18 4 0 9 -9 12 -21 7 -26 -2 -23 -101 33 -104
60 -136 89 -128 116 7 21 11 19 89 -36 45 -31 91 -65 101 -74z m31 80 c15 -51
11 -74 -12 -60 -6 4 -12 14 -13 22 -4 25 0 90 5 90 2 0 11 -23 20 -52z m419
43 c3 -5 -8 -14 -26 -20 -39 -14 -38 -14 -38 3 0 20 54 34 64 17z m275 -353
c-1 -93 -4 -168 -9 -168 -5 0 -9 82 -10 182 0 100 -3 184 -5 187 -3 2 -5 -75
-5 -172 0 -101 -4 -177 -9 -177 -5 0 -16 -3 -25 -6 -14 -5 -16 5 -16 74 l0 79
-65 -15 -65 -16 0 -78 c0 -43 -4 -78 -8 -78 -5 0 -8 83 -8 184 l1 184 60 13
c33 8 65 14 70 14 6 0 11 19 13 43 4 49 1 50 -93 24 l-60 -17 -3 -229 c-2
-160 1 -233 9 -242 9 -11 7 -14 -11 -14 -13 0 -21 -2 -18 -5 3 -3 25 -3 49 1
33 6 39 9 24 15 -12 4 4 6 37 5 l58 -1 0 -47 c0 -41 -3 -48 -20 -48 -10 0 -42
-5 -70 -11 l-50 -11 0 -405 0 -405 28 6 c15 2 48 8 75 11 l47 6 0 459 0 460
-32 -7 c-18 -3 -30 -2 -26 2 4 4 24 9 45 10 21 1 50 6 66 10 l27 7 0 -470 c0
-303 -4 -473 -10 -477 -5 -3 -10 -23 -10 -45 l0 -38 -57 -6 c-32 -3 -96 -8
-142 -12 l-84 -6 7 33 c35 174 44 369 26 599 -5 69 -9 181 -9 250 0 69 -4 137
-9 151 -7 17 -38 44 -86 74 -95 59 -100 77 -6 24 38 -21 72 -39 74 -39 13 0
-8 30 -25 35 -18 6 -19 18 -19 185 0 179 0 180 23 185 13 4 88 23 168 44 l144
38 7 -91 c4 -50 7 -166 7 -258z m-1602 246 c34 -15 52 -34 31 -34 -7 1 -24 7
-38 15 -14 8 -29 14 -35 14 -5 0 7 -9 28 -20 64 -33 41 -39 -30 -7 -38 16 -72
34 -77 39 -6 5 -14 9 -18 9 -5 0 -7 -228 -6 -507 l3 -508 85 -20 c79 -19 85
-23 88 -48 2 -15 0 -27 -5 -27 -4 -1 -56 10 -116 22 -79 17 -106 27 -102 36 3
8 5 256 5 553 l0 539 40 -20 c23 -11 52 -25 65 -30 47 -18 25 -1 -40 31 -91
46 -81 56 13 13 42 -20 91 -42 109 -50z m709 35 c3 -6 -5 -4 -19 6 -14 9 -28
12 -31 7 -3 -4 10 -14 28 -20 19 -7 79 -39 135 -71 55 -32 121 -66 146 -75 36
-14 45 -22 45 -42 0 -17 6 -24 20 -24 20 0 20 -7 20 -780 l0 -780 49 0 c76 0
111 -10 111 -31 0 -22 7 -22 -100 -9 -132 16 -146 23 -146 68 0 20 4 40 9 43
13 9 0 29 -19 29 -8 0 -14 7 -14 15 0 18 14 19 43 4 21 -12 21 -11 5 8 -14 15
-18 38 -18 101 0 81 0 82 -27 87 -16 4 -36 10 -45 15 -13 7 -16 6 -12 -5 3 -7
15 -15 27 -17 19 -3 22 -10 25 -60 2 -32 -1 -58 -6 -58 -4 0 -18 30 -30 68
-38 118 -76 159 -169 184 -31 9 -45 19 -52 38 -5 14 -10 20 -10 13 -1 -8 -10
-7 -31 5 l-30 17 0 642 c0 567 2 642 15 637 10 -4 15 0 15 10 0 15 3 15 29 1
17 -8 33 -20 37 -26z m804 -24 c0 -20 -7 -26 -42 -35 -24 -6 -55 -15 -70 -20
-26 -8 -28 -7 -28 19 0 27 5 30 58 44 79 21 82 20 82 -8z m-3041 -38 c-17 -14
-141 -65 -129 -53 8 8 38 24 65 35 45 18 75 26 64 18z m1531 -80 l45 -25 3
-97 c2 -65 -1 -95 -8 -90 -5 3 -10 43 -10 91 0 47 -4 83 -9 80 -5 -3 -21 1
-37 9 -16 7 -50 23 -76 34 -42 18 -48 24 -48 51 l0 30 48 -29 c26 -16 67 -40
92 -54z m-1687 -184 c11 -345 9 -562 -5 -601 -10 -28 -10 -36 0 -39 9 -4 12
-91 12 -390 l0 -386 53 7 c28 3 70 9 91 13 47 7 43 -12 -4 -21 -17 -3 -43 -9
-60 -12 -26 -5 -30 -10 -30 -39 0 -30 -4 -34 -32 -40 -18 -4 -40 -9 -49 -11
-16 -4 -17 57 -20 780 -2 431 -7 787 -10 790 -3 4 -27 -3 -52 -14 l-47 -21 0
-316 c0 -174 -2 -318 -5 -321 -3 -3 -5 163 -5 369 l1 374 64 29 c46 20 65 34
65 47 0 11 6 19 13 19 11 0 15 -46 20 -217z m917 167 c0 -5 -13 -4 -30 1 -16
6 -30 15 -30 19 0 5 14 4 30 -1 17 -6 30 -15 30 -19z m698 -71 c4 -62 -5 -74
-41 -58 -25 11 -27 17 -27 75 l0 63 33 -14 c30 -12 32 -17 35 -66z m-710 -3
c3 -45 2 -47 -20 -44 -20 3 -23 9 -26 55 -3 51 -2 53 20 44 19 -7 24 -17 26
-55z m765 33 c21 -9 25 -20 31 -76 7 -72 5 -80 -15 -61 -8 7 -23 13 -34 13
-18 0 -20 8 -23 68 -3 70 0 75 41 56z m-582 -19 c22 -13 28 -80 6 -80 -22 0
-37 23 -37 57 0 36 2 38 31 23z m1757 -79 c28 -16 50 -25 47 -20 -4 5 1 6 9 3
9 -3 16 -17 16 -30 l0 -24 -37 25 c-21 14 -53 33 -70 42 -18 9 -33 20 -33 25
0 13 12 9 68 -21z m-698 -11 c41 -21 45 -31 34 -88 l-6 -30 -39 16 c-39 15
-39 16 -39 69 0 29 2 53 5 53 3 0 24 -9 45 -20z m-1052 -53 c-5 -62 -28 -60
-28 2 0 41 3 49 16 44 11 -4 14 -17 12 -46z m565 13 c84 -32 87 -34 87 -65 0
-17 -2 -34 -5 -37 -3 -3 -47 12 -98 33 -91 37 -92 38 -95 75 -3 27 0 35 10 32
7 -3 52 -20 101 -38z m-763 10 c13 -9 13 -10 0 -10 -8 0 -22 5 -30 10 -13 9
-13 10 0 10 8 0 22 -5 30 -10z m-963 -92 c-2 -18 -4 -4 -4 32 0 36 2 50 4 33
2 -18 2 -48 0 -65z m3006 -52 c15 -9 17 -27 17 -124 0 -87 -3 -113 -12 -109
-9 2 -13 35 -14 108 l-2 104 -91 49 c-50 27 -91 56 -91 63 0 13 103 -36 193
-91z m-1323 -33 c0 -46 -4 -83 -9 -83 -5 0 -21 4 -35 10 -25 9 -26 13 -26 94
l0 84 35 -11 35 -10 0 -84z m1770 98 c0 -8 -47 -21 -76 -21 -26 0 -14 19 14
23 50 7 62 7 62 -2z m-600 -127 c0 -84 -2 -95 -16 -90 -9 3 -18 6 -20 6 -2 0
-4 45 -4 100 0 98 1 100 20 90 18 -10 20 -21 20 -106z m470 96 c0 -5 -12 -10
-27 -9 -25 0 -26 1 -8 9 27 12 35 12 35 0z m130 -194 l0 -203 -31 -7 c-63 -12
-60 -24 -57 196 l3 203 30 6 c17 4 36 7 43 8 9 1 12 -46 12 -203z m-1709 184
c16 -9 19 -22 19 -90 0 -44 -2 -80 -4 -80 -1 0 -17 5 -35 11 l-31 11 0 79 c0
84 6 92 51 69z m-691 -137 c0 -110 -2 -123 -17 -123 -16 0 -18 11 -15 123 3
100 6 124 18 124 11 0 14 -23 14 -124z m747 -6 c-2 -23 -3 -1 -3 48 0 50 1 68
3 42 2 -26 2 -67 0 -90z m418 119 c15 -11 17 -18 10 -34 -14 -29 -55 -12 -55
23 0 28 16 32 45 11z m-1435 -28 c-1 -28 -2 -30 -11 -15 -6 10 -8 25 -5 33 9
24 16 16 16 -18z m-30 -8 c0 -16 -4 -30 -10 -30 -6 0 -10 -28 -10 -64 l0 -63
28 3 27 4 -30 -14 -30 -14 -6 96 c-7 104 -6 112 17 112 9 0 14 -11 14 -30z
m202 18 c19 -16 32 -54 20 -62 -5 -3 -18 -2 -30 1 -17 4 -22 13 -22 39 0 37 7
41 32 22z m2018 -104 c0 -84 -2 -95 -16 -90 -9 3 -18 6 -20 6 -2 0 -4 45 -4
100 0 98 1 100 20 90 18 -10 20 -21 20 -106z m103 -474 c1 -96 -2 -215 -8
-265 -9 -80 -11 -55 -15 224 -3 172 -3 379 0 460 l4 146 9 -195 c4 -107 9
-274 10 -370z m-862 530 c5 0 9 -32 9 -71 0 -61 -2 -70 -16 -65 -9 3 -20 6
-25 6 -5 0 -9 32 -9 71 0 61 2 70 16 65 9 -3 20 -6 25 -6z m-467 -94 c24 -8
47 -12 50 -9 3 4 6 -17 6 -45 0 -29 -3 -52 -7 -52 -4 0 -47 14 -95 31 l-88 32
0 43 0 43 45 -14 c25 -8 65 -21 89 -29z m-1417 -123 c-2 -32 -3 -8 -3 52 0 61
1 87 3 58 2 -29 2 -78 0 -110z m2886 150 c-7 -2 -19 -2 -25 0 -7 3 -2 5 12 5
14 0 19 -2 13 -5z m-2710 -21 c-18 -14 -23 -29 -26 -82 l-3 -65 -2 77 c-2 77
2 86 38 87 10 0 8 -5 -7 -17z m2660 10 c-7 -5 -13 -41 -16 -92 l-3 -85 -2 93
c-2 82 0 92 16 92 11 0 13 -3 5 -8z m-202 -85 l56 -25 7 -65 c3 -35 6 -233 6
-438 -1 -206 2 -442 6 -525 4 -86 3 -153 -2 -157 -9 -5 -291 36 -298 44 -2 2
-6 16 -10 32 -8 32 -12 32 134 12 137 -19 146 -19 131 -1 -9 11 -10 55 -5 164
l7 151 -37 15 c-20 8 -36 20 -36 25 0 13 -2 13 38 2 l32 -10 0 183 c0 101 -3
265 -7 365 l-6 183 -84 41 c-45 23 -83 47 -83 54 0 13 34 2 151 -50z m-2951
-17 c0 -65 1 -63 -67 -84 -22 -7 -23 -5 -23 41 0 26 4 53 8 59 5 9 52 34 80
43 1 1 2 -26 2 -59z m3507 -77 c-2 -27 -3 -5 -3 47 0 52 1 74 3 48 2 -27 2
-69 0 -95z m-1856 67 c16 -9 19 -22 19 -71 0 -57 -1 -60 -22 -57 -21 3 -23 9
-26 71 -3 71 -2 73 29 57z m1179 -40 c0 -22 -4 -40 -10 -40 -5 0 -10 18 -10
40 0 22 5 40 10 40 6 0 10 -18 10 -40z m370 15 c0 -20 -5 -25 -25 -25 -20 0
-25 5 -25 25 0 20 5 25 25 25 20 0 25 -5 25 -25z m-1436 -15 c0 0 1 -63 1
-140 0 -113 -3 -139 -13 -135 -8 3 -16 5 -18 5 -2 0 -4 27 -4 61 0 74 -19 71
-21 -4 -2 -100 -17 0 -18 126 l-1 117 36 -15 c20 -8 37 -15 38 -15z m-1604
-45 c0 -30 -4 -55 -10 -55 -5 0 -10 25 -10 55 0 30 5 55 10 55 6 0 10 -25 10
-55z m400 40 c0 -8 -9 -15 -19 -15 -11 0 -113 -29 -228 -65 -267 -84 -250 -80
-237 -65 6 6 117 44 245 85 129 40 235 73 237 74 1 1 2 -6 2 -14z m2393 -112
c6 -102 4 -110 -21 -94 -16 10 -28 134 -18 186 6 32 10 36 20 24 9 -9 16 -53
19 -116z m-733 40 c0 -48 0 -48 -47 -31 -31 11 -33 15 -33 59 l0 48 40 -17
c38 -16 40 -19 40 -59z m-433 -195 c-1 -51 -3 -12 -3 87 0 99 2 141 3 93 2
-48 2 -129 0 -180z m235 232 c14 0 59 -29 46 -30 -24 -1 -88 34 -88 49 1 14 2
14 14 -1 7 -10 20 -18 28 -18z m1228 1 c0 -24 -5 -29 -32 -35 -18 -3 -45 -9
-60 -12 -26 -6 -28 -4 -28 23 0 31 3 32 113 52 4 0 7 -12 7 -28z m-420 -62 c0
-16 -4 -29 -10 -29 -5 0 -10 16 -10 36 0 21 4 33 10 29 6 -3 10 -19 10 -36z
m-3080 -34 c0 -37 -4 -65 -10 -65 -6 0 -10 28 -10 65 0 37 4 65 10 65 6 0 10
-28 10 -65z m3499 51 c-2 -2 -20 -6 -39 -10 -25 -4 -31 -3 -20 4 14 9 69 15
59 6z m191 -26 c0 -19 -5 -30 -14 -30 -7 0 -28 -3 -45 -6 -29 -6 -31 -5 -31
24 0 26 4 31 28 35 60 9 62 8 62 -23z m-1414 5 c16 -12 17 -14 2 -15 -23 0
-48 11 -48 21 0 14 24 11 46 -6z m-370 -5 c10 0 14 -15 14 -59 0 -61 -8 -72
-42 -63 -15 4 -18 16 -18 69 0 55 2 64 16 59 9 -3 22 -6 30 -6z m1594 -34 c0
-43 0 -44 -44 -55 -79 -20 -86 -17 -86 34 0 43 1 44 38 50 20 4 42 8 47 10 36
12 45 5 45 -39z m-3260 24 c0 -5 -2 -10 -4 -10 -2 0 -20 -7 -40 -15 -45 -19
-48 -5 -3 18 38 19 47 20 47 7z m894 4 c13 -5 16 -23 16 -93 0 -80 -2 -89 -25
-111 l-25 -23 0 116 c0 115 2 123 34 111z m1305 -15 c27 -9 31 -16 31 -46 0
-37 -4 -38 -51 -19 -15 6 -16 -3 -11 -86 2 -51 2 -91 0 -88 -10 10 -20 250
-10 250 5 0 23 -5 41 -11z m-1241 -5 c20 -6 22 -12 22 -70 0 -51 -3 -64 -15
-64 -9 0 -18 -7 -21 -15 -14 -37 -24 -8 -24 70 0 47 3 85 8 85 4 0 17 -3 30
-6z m2495 -151 c4 -75 7 -178 7 -230 0 -84 -2 -93 -19 -93 -10 0 -33 -3 -50
-6 l-31 -6 0 230 0 231 28 4 c63 9 58 18 65 -130z m-2945 65 c-2 -50 -6 -63
-20 -66 -16 -3 -18 5 -18 56 0 61 4 72 27 72 11 0 13 -15 11 -62z m710 -40 c3
-67 3 -68 -23 -68 -24 0 -25 2 -25 71 0 67 1 70 23 67 20 -3 22 -9 25 -70z
m-1664 46 c10 -27 7 -52 -9 -58 -12 -4 -15 3 -15 34 0 40 13 53 24 24z m3291
-4 c3 -5 -1 -10 -9 -10 -9 0 -16 5 -16 10 0 6 4 10 9 10 6 0 13 -4 16 -10z
m-3235 -21 c0 -5 -4 -9 -10 -9 -5 0 -10 7 -10 16 0 8 5 12 10 9 6 -3 10 -10
10 -16z m1167 15 c-3 -3 -12 -4 -19 -1 -8 3 -5 6 6 6 11 1 17 -2 13 -5z m493
-35 c0 -33 -3 -40 -17 -37 -13 2 -19 14 -21 41 -3 32 0 37 17 37 18 0 21 -6
21 -41z m107 19 c8 -6 13 -25 11 -42 -3 -29 -6 -31 -45 -34 l-43 -3 0 52 0 52
32 -7 c17 -3 37 -11 45 -18z m823 -43 c0 -62 19 -87 21 -28 2 32 3 33 6 9 7
-47 -4 -75 -27 -69 -18 5 -20 14 -20 80 0 47 4 72 10 68 6 -3 10 -30 10 -60z
m768 -175 c-1 -126 -5 -230 -10 -230 -4 0 -9 35 -10 78 l-2 77 -3 -72 c-2 -40
-8 -73 -13 -73 -8 0 -8 51 0 203 0 5 5 5 10 2 6 -3 10 -1 10 4 0 6 -6 11 -14
11 -8 0 -16 10 -18 22 -2 17 -15 26 -50 38 -27 8 -48 18 -48 22 0 8 64 -13
108 -36 l29 -15 0 92 c-1 92 -1 92 -4 15 -5 -102 -23 -101 -23 1 0 75 4 87 32
90 4 1 7 -102 6 -229z m235 154 c64 6 61 5 -40 -19 -17 -4 -23 -14 -26 -43 -2
-20 -4 -3 -4 38 0 41 2 62 4 47 4 -28 5 -28 66 -23z m-3423 -11 l0 -48 -63
-19 c-34 -10 -70 -21 -79 -23 -15 -5 -18 2 -18 39 l0 44 78 26 c42 14 78 27
80 27 1 1 2 -20 2 -46z m1147 -15 c-3 -8 -6 -5 -6 6 -1 11 2 17 5 13 3 -3 4
-12 1 -19z m343 12 c0 -5 -9 -10 -20 -10 -11 0 -20 5 -20 10 0 6 9 10 20 10
11 0 20 -4 20 -10z m-370 -34 c0 -7 -9 -16 -21 -19 -20 -5 -20 -5 -3 14 20 23
24 23 24 5z m565 -53 c-25 -37 -68 -111 -95 -164 l-49 -96 -118 -7 c-65 -3
-165 -9 -223 -13 l-105 -6 28 28 c31 31 23 54 -11 36 -30 -16 -30 -15 -26 32
3 40 3 41 -5 7 -4 -19 -15 -51 -23 -71 l-15 -35 -153 -13 c-84 -6 -166 -15
-182 -18 -29 -6 -30 -5 -18 18 7 13 63 74 124 134 118 116 212 178 264 174 15
-1 34 1 42 4 28 11 415 48 582 56 l28 1 -45 -67z m345 23 c107 -24 289 -69
404 -100 190 -51 245 -71 232 -83 -2 -2 -77 16 -167 41 -289 79 -597 147 -658
145 -34 -1 -33 -2 14 -11 210 -41 412 -91 422 -104 14 -19 49 -161 41 -169 -3
-3 -88 10 -189 29 -101 19 -208 38 -236 42 -51 6 -53 8 -63 45 -5 22 -15 57
-21 80 -6 23 -12 39 -14 37 -2 -2 4 -36 14 -74 l18 -71 -81 0 c-44 -1 -91 -5
-103 -9 -14 -6 13 -9 80 -9 l102 0 13 -45 12 -45 -5 43 -5 43 37 -7 c49 -8
388 -71 430 -80 28 -5 33 -12 43 -56 7 -27 10 -51 8 -53 -2 -2 -96 12 -208 31
-113 19 -214 33 -225 32 -11 -2 18 -10 65 -17 208 -31 364 -61 374 -71 8 -8 4
-10 -14 -6 -36 9 -368 56 -391 56 -23 0 -25 -29 -5 -69 17 -31 35 -104 76
-309 45 -217 36 -208 243 -225 86 -7 158 -15 160 -17 2 -3 7 -26 10 -52 6 -41
4 -48 -11 -49 -16 -1 -16 -2 1 -6 15 -4 17 -18 17 -110 l0 -106 -242 7 c-133
4 -244 9 -247 12 -3 2 1 27 8 55 15 57 10 152 -14 309 -8 52 -26 176 -40 275
-23 164 -62 385 -64 360 -1 -7 -25 -10 -63 -8 -35 2 -83 -1 -108 -6 -41 -9
-39 -9 21 -4 80 6 149 -4 149 -22 0 -10 -24 -13 -97 -13 -125 0 -174 -17 -196
-70 -40 -92 -147 -375 -147 -388 0 -8 -6 -30 -14 -49 -14 -32 -16 -33 -44 -23
l-30 12 18 36 c39 77 182 406 187 432 3 15 12 33 19 39 8 6 14 16 14 22 0 5
-8 3 -18 -6 -14 -13 -38 -17 -98 -17 -202 0 -571 -28 -747 -56 -54 -9 -100
-14 -102 -12 -2 2 13 22 33 45 l37 41 130 11 c72 6 182 16 245 21 63 5 198 13
300 16 102 4 193 11 203 16 9 5 43 59 73 121 31 62 72 136 90 165 33 51 35 52
81 52 27 0 136 -20 243 -44z m-1810 -31 c0 -24 -5 -35 -15 -35 -10 0 -15 10
-15 29 0 25 6 33 28 40 1 1 2 -15 2 -34z m2844 -1 c10 -25 7 -34 -9 -34 -9 0
-15 9 -15 25 0 28 15 34 24 9z m412 7 c-3 -4 -28 -11 -55 -15 l-50 -7 -4 -97
-3 -97 -2 102 -2 102 38 6 c20 4 42 8 47 10 20 7 36 5 31 -4z m-412 -77 c3 -9
6 -49 6 -90 0 -59 -3 -74 -15 -74 -12 0 -15 17 -15 90 0 83 9 112 24 74z
m-2844 -14 c0 -5 -7 -10 -15 -10 -8 0 -15 5 -15 10 0 6 7 10 15 10 8 0 15 -4
15 -10z m2307 -50 c259 -68 266 -71 287 -102 34 -53 117 -397 151 -628 16
-107 23 -385 10 -398 -3 -3 -5 27 -5 66 0 39 -5 74 -10 77 -6 4 -8 10 -5 15 3
5 1 11 -5 15 -5 3 -10 27 -10 53 0 128 -49 438 -91 585 -17 56 -25 70 -47 78
-28 11 -309 79 -403 98 l-56 12 -21 77 c-11 42 -24 85 -27 95 -4 9 -5 17 -2
17 3 0 108 -27 234 -60z m-1806 -75 c-17 -20 -47 -51 -66 -71 l-35 -35 0 27
c0 19 4 25 15 21 8 -4 17 -2 20 4 10 15 -19 21 -49 9 -25 -9 -27 -14 -26 -58
3 -68 4 -65 -44 -129 l-43 -59 -79 -12 c-43 -7 -85 -12 -91 -12 -10 0 -13 33
-13 130 0 127 0 130 23 135 43 11 392 83 406 84 7 1 0 -14 -18 -34z m2951 -20
c-3 -20 -10 -25 -32 -25 -16 0 -35 -3 -44 -6 -12 -5 -16 0 -16 19 0 26 13 33
71 36 23 1 26 -2 21 -24z m-3075 -97 c-2 -13 -4 -3 -4 22 0 25 2 35 4 23 2
-13 2 -33 0 -45z m2468 44 c-3 -3 -11 0 -18 7 -9 10 -8 11 6 5 10 -3 15 -9 12
-12z m605 4 c0 -17 -22 -26 -61 -26 -38 0 -39 27 -1 33 53 8 62 7 62 -7z
m-4848 -11 c40 -9 139 -27 219 -40 172 -28 317 -54 342 -61 26 -8 22 -35 -5
-29 -13 3 -162 28 -333 56 -170 28 -313 53 -317 55 -14 9 -9 34 6 34 8 0 48
-7 88 -15z m3803 -52 c83 -19 162 -41 176 -49 22 -11 29 -28 52 -126 15 -62
32 -140 37 -173 14 -86 40 -324 40 -364 l0 -34 -232 6 c-127 4 -232 8 -233 9
-2 2 -6 22 -10 46 l-7 44 128 -6 c71 -4 173 -9 227 -12 66 -4 97 -2 97 5 0 7
-32 11 -87 12 -49 0 -106 1 -128 3 -22 1 -82 3 -132 4 -75 2 -93 5 -93 17 0
13 14 14 88 10 48 -3 107 -8 132 -10 30 -4 41 -2 34 5 -6 6 -67 13 -137 17
-70 3 -127 9 -127 12 -1 47 -53 423 -66 477 -5 20 0 19 188 -19 106 -21 204
-44 218 -50 17 -8 30 -28 41 -62 25 -75 49 -228 50 -319 1 -66 2 -76 10 -51
20 62 -33 380 -70 426 -14 18 -56 30 -225 64 -114 24 -209 45 -211 46 -3 4
-35 123 -35 132 0 6 42 -3 275 -60z m302 -30 c-2 -16 -4 -3 -4 27 0 30 2 43 4
28 2 -16 2 -40 0 -55z m652 -195 c1 -141 -3 -228 -9 -228 -9 0 -20 475 -10
495 12 26 18 -60 19 -267z m-3349 238 c0 -37 -18 -76 -35 -76 -11 0 -15 12
-15 50 0 47 2 50 25 50 20 0 25 -5 25 -24z m3314 8 c3 -9 6 -119 6 -246 l0
-229 -22 3 c-23 3 -23 5 -28 188 l-5 185 -70 -4 c-38 -1 -73 -5 -77 -8 -5 -2
-8 -87 -8 -189 l0 -184 -45 -1 c-25 -1 -51 -2 -57 -3 -8 -1 -14 13 -16 31 -3
28 0 32 25 35 l28 3 -2 210 c0 162 1 187 6 110 8 -109 14 -130 39 -140 13 -5
12 -2 -3 15 -16 17 -20 41 -23 120 l-4 98 78 7 c44 3 90 7 104 9 57 7 68 5 74
-10z m-4766 -14 c7 0 13 -16 14 -42 l1 -43 4 43 c3 33 8 42 19 38 11 -4 335
-59 547 -92 l37 -6 0 -75 0 -75 -72 7 c-40 4 -172 21 -293 39 l-220 31 -6 40
c-4 24 -7 -6 -8 -76 -1 -101 -3 -117 -18 -123 -10 -3 -28 -10 -40 -16 l-23 -9
0 185 0 186 23 -6 c12 -3 28 -6 35 -6z m4292 -11 c0 -5 -7 -9 -15 -9 -8 0 -15
7 -15 15 0 9 6 12 15 9 8 -4 15 -10 15 -15z m-1198 -99 c21 -122 51 -335 53
-381 1 -20 5 -40 8 -45 9 -15 25 -124 32 -216 8 -116 -9 -198 -42 -198 -17 0
-23 6 -24 23 l-2 22 -4 -22 c-4 -22 -9 -23 -106 -24 -56 -1 -129 -5 -162 -9
-47 -6 -27 -8 90 -8 83 0 155 0 161 -1 13 -1 8 -87 -7 -137 -9 -29 -14 -32
-62 -38 -29 -3 -102 -6 -164 -6 -101 0 -112 2 -118 19 -3 10 -23 46 -45 79
-73 114 -182 145 -268 75 -39 -31 -110 -123 -95 -123 4 0 21 19 37 41 44 63
100 99 153 99 24 0 56 -6 72 -14 38 -20 92 -83 115 -134 19 -43 13 -73 -8 -38
-27 46 -81 96 -112 105 -50 14 -96 -3 -144 -52 -41 -43 -42 -43 -98 -39 -39 3
-69 12 -94 29 -64 43 -65 47 -18 100 23 27 52 68 65 93 30 59 20 80 -35 80
-22 0 -40 4 -40 10 0 19 121 138 194 190 41 30 74 56 71 58 -9 10 -158 -104
-209 -161 -92 -101 -98 -107 -117 -107 -9 0 -73 -13 -142 -30 -150 -36 -160
-36 -179 -8 -13 20 -26 22 -189 29 -209 9 -423 2 -461 -16 l-28 -13 5 41 c5
39 4 40 -5 12 -6 -16 -8 -43 -5 -60 l5 -30 -25 28 c-32 36 -31 57 4 91 21 20
30 24 35 14 3 -9 5 -8 3 3 -2 16 66 77 155 137 40 27 56 32 107 32 l61 0 -32
-31 c-18 -16 -1 -6 38 23 l70 53 -60 5 c-153 13 30 22 519 27 610 5 576 11
525 -86 -29 -54 -42 -67 -109 -107 -42 -25 -92 -59 -111 -75 -24 -21 -13 -16
38 16 70 45 195 107 239 120 l22 6 -4 -153 -4 -153 10 150 c7 122 12 152 26
163 27 19 36 15 65 -31 l28 -42 0 51 0 51 51 6 c28 4 56 10 63 15 6 5 37 17
68 26 91 26 93 32 92 271 -1 232 11 195 22 -68 4 -95 11 -162 15 -155 5 7 9
45 9 83 0 82 -26 352 -35 378 -10 24 -44 30 -127 25 -99 -8 -113 -21 -169
-157 -25 -62 -51 -121 -57 -132 -7 -11 -12 -58 -12 -114 0 -57 -4 -95 -10 -95
-5 0 -10 22 -10 50 0 40 -3 48 -15 44 -13 -5 -14 -2 -4 22 6 16 39 101 73 189
34 88 66 168 72 178 18 32 81 47 184 44 l95 -2 17 -95z m313 45 c88 -13 165
-25 171 -25 15 0 93 -515 80 -528 -9 -9 -304 22 -323 34 -33 21 -37 33 -78
229 -32 159 -54 238 -80 298 -6 14 -2 17 31 17 22 0 111 -11 199 -25z m-2682
-10 l37 -6 0 -91 0 -90 -31 6 c-17 3 -42 6 -55 6 -24 0 -24 2 -24 94 0 84 2
94 18 91 9 -2 34 -7 55 -10z m2315 -16 c-3 -8 -7 -3 -11 10 -4 17 -3 21 5 13
5 -5 8 -16 6 -23z m1239 -41 c-2 -16 0 -28 5 -28 5 0 6 -4 3 -10 -16 -25 -25
-5 -24 53 0 52 2 58 10 37 6 -14 9 -37 6 -52z m-1418 -120 c1 -38 4 -68 9 -68
4 0 8 -41 10 -90 2 -61 -1 -90 -8 -90 -8 0 -10 27 -8 85 l3 84 -35 10 c-34 9
-34 9 -6 10 l29 1 -6 123 c-3 82 -2 102 3 62 4 -33 8 -90 9 -127z m-2069 72
c0 -47 -4 -80 -10 -80 -6 0 -10 33 -10 80 0 47 4 80 10 80 6 0 10 -33 10 -80z
m3910 35 c0 -43 -1 -45 -29 -45 -16 0 -43 -3 -60 -6 l-31 -6 0 45 c0 51 5 55
73 56 l47 1 0 -45z m-1872 -75 l-1 -65 -8 50 c-4 28 -8 57 -10 65 -1 8 -1 26
0 40 l3 25 8 -25 c4 -14 8 -54 8 -90z m-861 13 c-6 -78 -32 -252 -39 -258 -2
-2 -38 -5 -80 -7 l-78 -3 0 25 c0 47 49 302 61 316 8 9 33 14 77 14 l65 0 -6
-87z m-537 62 c-27 -14 -36 -13 -25 4 3 6 16 11 28 11 21 -1 21 -1 -3 -15z
m334 -177 c-19 -90 -34 -164 -34 -164 0 -4 -152 -15 -156 -11 -9 8 33 75 172
272 25 36 46 65 48 65 2 0 -12 -73 -30 -162z m2626 116 c0 -27 -4 -43 -10 -39
-5 3 -10 24 -10 46 0 21 5 39 10 39 6 0 10 -21 10 -46z m-2944 -32 c-13 -12
-17 8 -10 40 l9 33 3 -33 c2 -19 1 -36 -2 -40z m-1071 3 c154 -20 287 -40 295
-44 19 -10 120 -142 120 -159 0 -9 -14 -11 -52 -7 -295 30 -465 48 -523 55
-38 5 -75 10 -82 10 -11 0 -93 161 -93 183 0 5 12 7 28 4 15 -3 153 -22 307
-42z m4227 -52 l2 -68 3 63 c4 61 4 62 33 62 30 0 30 0 32 -62 l2 -63 3 63 c6
90 23 76 23 -18 l0 -80 -60 0 -60 0 0 85 c0 102 19 117 22 18z m-3505 -130
c-2 -37 -3 -9 -3 62 0 72 1 102 3 68 2 -34 2 -93 0 -130z m30 150 c-3 -10 -5
-4 -5 12 0 17 2 24 5 18 2 -7 2 -21 0 -30z m-407 -11 c0 -4 16 -25 35 -47 20
-21 35 -45 33 -53 -2 -9 -17 5 -38 34 -48 66 -53 74 -40 74 5 0 10 -4 10 -8z
m70 -33 c0 -16 -4 -29 -9 -29 -12 0 -23 29 -15 41 3 5 0 8 -7 7 -6 -2 -13 2
-16 8 -2 7 5 10 22 7 20 -4 25 -11 25 -34z m658 -14 c-2 -2 -24 -6 -50 -10
-46 -7 -48 -6 -48 18 0 22 6 26 48 34 45 8 47 7 50 -15 2 -13 2 -25 0 -27z
m-621 -122 c-2 -32 -3 -6 -3 57 0 63 1 89 3 58 2 -32 2 -84 0 -115z m743 98
c0 -27 -3 -29 -43 -32 -43 -4 -43 -4 -43 28 1 32 2 33 44 33 40 0 42 -2 42
-29z m30 25 c0 -3 -4 -8 -10 -11 -5 -3 -10 -1 -10 4 0 6 5 11 10 11 6 0 10 -2
10 -4z m1182 -96 c-3 -75 -5 -79 -23 -70 -23 13 -25 22 -4 14 13 -5 15 5 12
69 -2 49 1 73 8 71 6 -3 9 -35 7 -84z m-1842 -27 c0 -57 -5 -53 -14 11 -5 33
-4 46 3 41 6 -3 11 -27 11 -52z m518 -12 c3 -58 1 -66 -24 -92 -15 -16 -31
-29 -36 -29 -10 0 -11 174 -1 184 4 4 19 6 33 4 23 -3 25 -7 28 -67z m92 54
c0 -8 -4 -15 -10 -15 -5 0 -10 7 -10 15 0 8 5 15 10 15 6 0 10 -7 10 -15z
m-1169 -30 c221 -26 256 -31 248 -40 -5 -4 -615 61 -654 69 -56 13 211 -6 406
-29z m999 -60 c0 -100 -13 -127 -24 -49 -11 85 -8 144 9 144 12 0 15 -17 15
-95z m1103 75 c15 -7 27 -17 27 -22 0 -5 -15 -1 -32 8 -19 10 -65 19 -108 22
-71 4 -78 3 -108 -23 -18 -15 -30 -30 -27 -35 4 -7 -75 -20 -125 -20 -20 0
-22 2 -10 10 8 5 38 10 67 10 42 0 54 4 63 20 20 38 59 51 145 47 44 -2 92
-10 108 -17z m2217 11 c0 -5 -27 -11 -60 -13 -59 -3 -82 6 -37 15 42 8 97 7
97 -2z m-2258 -37 c48 -25 16 -35 -99 -32 l-98 3 23 23 c18 18 33 22 82 22 37
0 74 -7 92 -16z m2253 -10 c-46 -7 -123 -8 -118 -1 2 4 34 6 71 6 37 -1 58 -3
47 -5z m-4375 -59 l0 -42 77 -7 c42 -3 95 -6 119 -6 41 0 43 2 47 33 2 17 4
-111 3 -285 l-1 -316 30 -4 30 -3 -3 170 c-1 93 2 229 6 300 8 116 9 97 11
-177 l1 -306 -175 -2 -175 -1 0 350 c0 307 2 350 15 345 10 -4 15 -20 15 -49z
m418 39 l22 -6 0 -329 0 -329 -27 -1 c-25 0 -26 -1 -8 -9 15 -7 10 -9 -23 -7
-23 1 -42 5 -42 10 0 4 0 158 0 342 l0 335 28 0 c15 0 37 -3 50 -6z m4062 -8
c0 -15 -19 -17 -267 -32 -86 -5 -103 -3 -103 9 0 12 34 16 183 24 100 5 183
10 185 11 1 1 2 -4 2 -12z m-4015 -394 c-12 -12 -13 13 -6 203 l6 200 3 -199
c1 -109 0 -201 -3 -204z m1273 391 c-16 -2 -40 -2 -55 0 -16 2 -3 4 27 4 30 0
43 -2 28 -4z m-1975 -39 l88 -7 -3 -138 c-3 -117 -1 -139 12 -142 10 -2 9 -4
-5 -8 -11 -3 -33 -2 -50 2 l-30 7 28 1 27 1 0 130 c0 72 -3 130 -7 131 -5 0
-43 4 -85 7 l-78 8 -2 -311 -3 -310 -22 -3 -23 -3 0 326 0 327 33 -6 c17 -3
72 -8 120 -12z m2797 -19 c0 -19 -4 -35 -10 -35 -5 0 -10 16 -10 35 0 19 5 35
10 35 6 0 10 -16 10 -35z m-1635 -42 c4 -27 9 -55 11 -64 7 -24 -44 -62 -72
-55 -12 3 -35 3 -51 0 -26 -5 -28 -8 -25 -45 3 -27 -2 -49 -17 -71 l-21 -33 0
72 c0 39 -3 78 -6 87 -5 13 3 16 49 16 30 0 68 3 85 6 27 6 30 10 34 51 l3 46
-82 -6 c-66 -4 -83 -2 -83 9 0 15 22 22 85 27 90 8 83 11 90 -40z m3075 26
c47 -5 88 -13 92 -17 9 -10 20 -511 11 -525 -5 -7 -12 107 -18 253 -8 223 -12
265 -25 267 -8 1 -50 5 -92 8 -43 4 -78 11 -78 16 0 11 7 11 110 -2z m-1560
-9 c0 -5 -2 -10 -4 -10 -3 0 -8 5 -11 10 -3 6 -1 10 4 10 6 0 11 -4 11 -10z
m47 -6 c-3 -3 -12 -4 -19 -1 -8 3 -5 6 6 6 11 1 17 -2 13 -5z m2093 -309 l0
-275 -45 0 -44 0 -3 155 c-3 155 -3 155 20 155 13 0 22 6 22 15 0 10 -10 15
-29 15 -37 0 -38 -6 -47 -192 -4 -82 -11 -148 -16 -148 -6 0 -9 17 -7 38 3 56
-1 71 -12 47 -5 -12 -6 62 -2 193 l6 212 -116 0 -116 0 2 -97 c2 -94 1 -98
-19 -95 -23 3 -39 -12 -47 -43 -2 -11 -5 13 -6 53 -1 66 1 72 19 72 17 0 20 7
20 44 0 58 -8 76 -34 78 -11 1 42 4 120 8 114 5 144 9 158 23 14 13 35 17 97
17 l79 0 0 -275z m-4071 33 c1 -87 1 -88 -24 -88 -16 0 -25 6 -25 15 0 17 11
20 26 5 6 -6 8 30 7 98 -1 68 1 98 7 82 4 -14 8 -64 9 -112z m110 110 c0 -13
-3 -17 -6 -10 -7 19 -50 15 -55 -6 -4 -15 1 -17 34 -14 33 4 38 1 38 -17 0
-17 -6 -21 -30 -21 -16 0 -30 5 -30 10 0 6 -4 10 -10 10 -6 0 -10 -33 -10 -79
l0 -79 30 11 c24 9 35 9 53 -2 20 -13 21 -13 8 2 -7 10 -27 17 -43 17 -19 0
-27 4 -22 11 9 15 105 4 116 -13 4 -7 8 -28 8 -46 0 -30 -2 -33 -22 -27 -13 4
-27 11 -32 16 -6 5 -18 9 -28 9 -13 0 -18 -8 -18 -31 0 -27 -2 -29 -15 -16 -8
9 -20 17 -27 19 -9 3 -13 45 -16 141 l-4 137 41 0 c36 0 41 -3 40 -22z m232 4
c-5 -10 -17 -24 -25 -32 -14 -11 -16 -8 -16 19 0 27 4 31 25 31 22 0 24 -3 16
-18z m3475 11 l-89 -4 7 -164 c3 -91 9 -178 12 -195 4 -20 3 -30 -5 -30 -7 0
-11 8 -10 18 1 9 -1 24 -4 32 -4 8 -8 35 -10 60 -3 25 -3 14 -2 -24 2 -60 0
-69 -17 -74 -18 -4 -19 -11 -12 -85 6 -66 4 -79 -7 -75 -9 3 -17 30 -21 79 -6
54 -13 78 -27 89 -26 21 -27 113 -2 177 20 51 43 70 39 31 -3 -19 2 -24 25
-26 26 -3 28 -1 26 30 -2 18 -2 63 -1 101 l2 67 93 -2 92 -2 -89 -3z m-501
-37 c6 -2 9 -35 7 -80 l-4 -76 -211 -2 -212 -2 214 -6 c157 -4 215 -8 218 -17
4 -10 -50 -13 -236 -12 l-241 0 0 103 0 104 228 -5 c125 -2 232 -6 237 -7z
m-3145 -71 c0 -30 -4 -55 -10 -55 -5 0 -10 25 -10 55 0 30 5 55 10 55 6 0 10
-25 10 -55z m3320 24 c0 -30 -2 -31 -31 -25 -17 3 -40 6 -50 6 -14 0 -19 7
-19 25 0 23 3 25 50 25 49 0 50 0 50 -31z m-142 -60 l-3 -64 -5 72 c-3 40 -1
68 3 64 4 -4 7 -37 5 -72z m509 -196 c-1 -49 -3 -9 -3 87 0 96 2 136 3 88 2
-49 2 -127 0 -175z m-3747 212 c0 -31 -3 -35 -25 -35 -22 0 -25 4 -25 35 0 31
3 35 25 35 22 0 25 -4 25 -35z m3363 -2 c4 -2 7 -14 7 -26 -1 -20 -2 -20 -11
-4 -6 11 -22 17 -44 17 -25 0 -35 5 -35 15 0 13 7 15 38 9 20 -4 40 -9 45 -11z
m-2008 -3 c-3 -5 -30 -11 -58 -11 -29 -1 -65 -5 -82 -9 -26 -6 -22 -8 23 -9
l53 -1 -25 -33 c-14 -18 -35 -54 -46 -79 -11 -26 -29 -49 -39 -53 -21 -6 -174
-25 -210 -25 -24 0 -24 0 -5 21 17 18 25 20 105 13 80 -6 88 -5 108 15 28 28
27 56 -4 87 -19 19 -31 23 -52 18 -31 -7 -83 -56 -83 -78 0 -14 -56 -33 -67
-22 -3 3 5 30 17 60 l23 55 56 8 c31 4 70 6 86 5 20 -2 26 0 17 6 -10 7 -4 13
25 25 42 18 168 23 158 7z m-2127 -152 l-3 -153 -92 -3 c-60 -2 -93 1 -93 8 0
6 33 10 85 10 l85 0 0 145 c0 92 4 145 10 145 7 0 10 -53 8 -152z m957 97 c17
-14 30 -118 14 -113 -7 2 -16 18 -21 34 -9 35 -19 126 -11 104 3 -8 11 -19 18
-25z m3402 9 c-9 -9 -28 6 -21 18 4 6 10 6 17 -1 6 -6 8 -13 4 -17z m-151 -30
c1 -29 1 -32 -3 -9 -3 17 -10 36 -16 44 -10 11 -9 13 3 9 10 -3 15 -19 16 -44z
m-2548 17 c2 -1 1 -5 -2 -9 -8 -13 -289 -2 -303 12 -9 8 26 9 145 4 86 -3 158
-6 160 -7z m2432 9 c0 -5 -7 -10 -15 -10 -8 0 -15 5 -15 10 0 6 7 10 15 10 8
0 15 -4 15 -10z m30 -25 c0 -32 -2 -35 -30 -35 -23 0 -30 4 -30 20 0 23 20 26
39 8 10 -11 11 -8 6 15 -5 17 -3 27 4 27 6 0 11 -16 11 -35z m507 -162 c-2
-38 -3 -7 -3 67 0 74 1 105 3 68 2 -38 2 -98 0 -135z m-3367 177 c0 -6 -47
-10 -121 -10 -77 0 -118 4 -114 10 4 6 55 10 121 10 69 0 114 -4 114 -10z m60
-29 c0 -15 9 -37 21 -50 l21 -22 -23 -25 c-12 -13 -26 -24 -31 -24 -5 0 3 10
17 23 l26 22 -29 17 c-28 17 -30 17 -53 -8 -24 -25 -24 -26 -5 -40 11 -8 15
-14 10 -14 -11 0 -34 21 -34 31 0 3 14 23 30 44 17 21 30 49 30 62 0 14 4 21
10 18 6 -3 10 -19 10 -34z m390 -53 c-57 -156 -74 -168 -264 -181 -122 -8
-162 -7 -252 7 -60 9 -118 23 -131 31 -23 15 -45 79 -57 163 -9 64 0 51 19
-28 12 -49 25 -76 41 -89 39 -31 150 -44 330 -39 146 3 166 6 191 24 30 23 78
110 89 162 5 27 11 32 35 32 l29 0 -30 -82z m238 15 c2 -11 -5 -26 -15 -33
-15 -12 -16 -12 -5 0 18 21 15 39 -10 62 l-23 20 25 -15 c14 -8 26 -23 28 -34z
m2080 -15 l-1 -63 -6 50 c-6 47 -4 75 5 75 2 0 3 -28 2 -62z m-3350 24 c2 -15
-2 -22 -12 -22 -11 0 -16 9 -16 26 0 31 23 28 28 -4z m1187 -4 c0 -24 6 -35
25 -45 22 -11 23 -13 5 -13 -28 0 -45 19 -45 50 0 21 7 40 14 40 1 0 1 -14 1
-32z m1151 -33 c3 -24 3 -62 -1 -84 -7 -40 -8 -41 -46 -41 l-40 0 6 48 c3 26
8 65 11 88 4 38 6 40 34 36 26 -4 30 -9 36 -47z m502 -27 c8 -55 8 -74 -1 -80
-7 -4 -73 -8 -148 -8 -75 0 -183 -3 -240 -6 l-104 -7 0 87 0 86 241 0 242 0
10 -72z m130 66 c18 -5 20 -9 11 -21 -7 -7 -20 -37 -29 -66 -16 -49 -19 -52
-53 -55 -39 -3 -38 -4 -53 101 l-6 47 53 0 c30 0 64 -3 77 -6z m150 -19 c16
-14 37 -44 46 -66 18 -43 13 -68 -6 -34 -50 88 -119 86 -179 -5 -24 -35 -34
-18 -20 32 27 89 100 123 159 73z m187 15 c3 -5 3 -36 -1 -69 -6 -58 -7 -59
-41 -66 -48 -9 -71 1 -78 35 -4 16 -17 45 -30 64 l-24 35 22 4 c44 9 146 7
152 -3z m-2759 -11 c3 -5 -36 -9 -85 -9 -57 0 -91 4 -91 11 0 12 168 11 176
-2z m2874 2 c0 -4 -11 -6 -25 -3 -14 2 -25 6 -25 8 0 2 11 4 25 4 14 0 25 -4
25 -9z m-2455 -11 c-4 -6 -57 -10 -125 -10 -68 0 -121 4 -125 10 -4 6 40 10
125 10 85 0 129 -4 125 -10z m-794 -36 c27 -9 49 -20 49 -24 0 -10 -102 -24
-121 -18 -7 2 -13 16 -13 31 -2 32 13 34 85 11z m121 -4 c10 0 18 -4 18 -10 0
-5 -5 -10 -11 -10 -18 0 -49 20 -49 32 0 9 3 9 12 0 7 -7 20 -12 30 -12z
m-242 -10 c0 -5 -4 -10 -10 -10 -5 0 -10 5 -10 10 0 6 5 10 10 10 6 0 10 -4
10 -10z m519 -41 c16 -5 -8 -6 -59 -3 -47 4 -94 10 -105 15 -25 11 128 0 164
-12z m816 -13 c47 -36 56 -40 118 -51 37 -6 37 -6 23 -33 -7 -15 -30 -78 -51
-140 -20 -62 -47 -125 -59 -138 l-21 -25 -122 14 c-132 15 -120 10 -227 100
-42 36 -51 39 -133 46 l-88 8 87 2 c48 0 98 -4 111 -10 18 -8 52 -8 122 -1 54
6 100 14 103 17 3 3 0 11 -6 17 -19 19 -14 30 11 26 17 -2 22 -9 20 -31 -1
-21 3 -27 18 -27 30 0 33 23 9 69 -35 69 -65 81 -210 81 l-125 0 26 26 c23 23
40 28 148 40 67 8 136 21 154 28 44 20 41 20 92 -18z m-1059 -15 l14 -34 -32
7 c-39 8 -58 23 -58 48 0 16 6 19 31 16 24 -2 34 -10 45 -37z m559 29 c-16 -4
-84 -7 -150 -7 -87 0 -106 2 -70 7 71 10 258 10 220 0z m3002 -47 c-3 -10 -5
-4 -5 12 0 17 2 24 5 18 2 -7 2 -21 0 -30z m-173 -125 c-13 -20 -22 -3 -32 59
-9 51 -8 70 1 81 9 12 14 1 24 -58 7 -40 10 -77 7 -82z m-3504 82 l0 -60 -115
0 -115 0 0 35 c0 35 0 35 48 37 l47 2 -47 3 c-40 3 -48 8 -48 24 0 18 8 19
115 19 l115 0 0 -60z m3098 7 c3 -36 2 -37 -30 -37 -18 0 -42 -3 -53 -6 -17
-4 -22 2 -31 35 l-11 40 51 4 c71 4 71 5 74 -36z m-454 17 c3 -9 6 -26 6 -39
0 -30 -5 -31 -250 -45 -276 -15 -254 -18 -266 35 l-10 45 70 1 c77 2 388 14
422 17 12 1 25 -5 28 -14z m121 -16 c-10 -47 -12 -48 -60 -48 -43 0 -43 0 -47
40 l-4 40 59 0 59 0 -7 -32z m98 2 c28 -33 47 -106 47 -180 0 -63 -19 -152
-31 -144 -5 3 -5 14 2 26 6 11 13 53 16 94 7 86 -14 155 -53 181 -23 14 -26
14 -44 -2 -25 -23 -28 -1 -4 33 20 30 37 28 67 -8z m285 18 c-6 -18 -28 -21
-28 -4 0 9 7 16 16 16 9 0 14 -5 12 -12z m-1609 -37 c42 -40 78 -122 91 -206
15 -109 11 -117 -15 -27 -13 46 -26 86 -29 90 -3 3 -6 -42 -6 -101 0 -136 -14
-199 -52 -243 -42 -47 -87 -47 -122 -1 -69 90 -94 230 -61 342 18 64 67 149
94 165 30 18 68 11 100 -19z m505 13 c3 -9 6 -30 6 -48 l0 -33 -112 -6 c-62
-4 -134 -7 -159 -7 -46 0 -47 0 -61 45 -9 25 -15 46 -14 47 0 0 69 4 151 8 83
3 157 7 166 8 9 1 20 -5 23 -14z m70 -6 c3 -13 6 -35 6 -50 0 -23 -4 -28 -25
-28 -21 0 -25 5 -25 28 0 15 -3 37 -6 50 -5 18 -2 22 19 22 17 0 26 -7 31 -22z
m1516 -9 c0 -18 -6 -20 -57 -17 -49 3 -58 6 -61 23 -3 18 2 20 58 17 52 -3 60
-6 60 -23z m-260 6 c0 -18 26 -20 33 -2 3 7 6 5 6 -5 1 -16 -11 -18 -111 -18
-112 0 -147 8 -134 29 5 7 44 11 107 11 81 0 99 -3 99 -15z m-3680 -25 l0 -30
-312 0 c-172 0 -357 -3 -411 -7 l-97 -6 0 31 c0 28 3 31 38 35 20 2 205 4 410
5 l372 2 0 -30z m2009 -1 c14 -39 14 -69 1 -69 -5 0 -14 19 -21 43 -6 23 -13
45 -16 50 -2 4 2 7 10 7 8 0 20 -14 26 -31z m1441 -7 c0 -21 -6 -46 -13 -56
-11 -15 -12 -11 -9 26 6 75 22 97 22 30z m-3090 -13 c0 -11 -4 -17 -10 -14 -5
3 -10 13 -10 21 0 8 5 14 10 14 6 0 10 -9 10 -21z m903 -29 c15 -17 27 -35 27
-41 0 -6 -33 -9 -87 -7 -99 3 -110 13 -72 62 20 25 27 27 63 22 28 -4 50 -16
69 -36z m1792 -2 c-17 -75 -32 -94 -84 -104 l-33 -7 15 29 c8 16 17 46 21 66
7 37 16 43 69 47 16 1 18 -4 12 -31z m350 10 c-12 -39 -34 -67 -65 -83 l-30
-16 0 61 0 60 51 0 c48 0 50 -1 44 -22z m-445 -18 c0 -38 -29 -110 -44 -110
-6 0 -114 -9 -239 -21 -154 -15 -232 -18 -239 -11 -10 10 -2 110 12 132 7 12
269 34 453 39 57 1 57 1 57 -29z m150 26 c0 -2 -7 -9 -15 -16 -12 -10 -15 -10
-15 4 0 9 7 16 15 16 8 0 15 -2 15 -4z m45 -80 c6 -50 0 -104 -11 -93 -3 3 -7
39 -9 81 -5 87 10 95 20 12z m-2285 44 c41 0 61 -3 54 -10 -10 -10 -392 4
-403 16 -3 4 59 4 139 0 80 -3 174 -6 210 -6z m1486 -7 c-3 -10 -10 -37 -15
-59 -6 -23 -18 -48 -27 -55 -13 -11 -274 -53 -280 -46 -1 1 1 36 3 79 l6 76
91 6 c50 4 109 8 131 9 96 8 97 8 91 -10z m68 -56 c-5 -56 -3 -75 8 -84 10 -9
47 -8 153 2 147 15 201 18 194 10 -7 -6 -297 -41 -499 -60 -91 -8 -186 -18
-212 -21 -27 -4 -48 -3 -48 2 1 26 26 34 144 49 70 8 137 20 147 25 24 14 37
38 50 99 10 47 13 51 40 51 l30 0 -7 -73z m753 -44 c-2 -21 -4 -4 -4 37 0 41
2 58 4 38 2 -21 2 -55 0 -75z m-2692 87 c15 -7 9 -9 -26 -9 -54 -1 -107 -21
-102 -38 2 -6 0 -14 -4 -16 -5 -3 -10 7 -11 22 -2 20 4 31 20 39 27 13 95 14
123 2z m1545 -14 c0 -44 -21 -181 -29 -189 -13 -13 -21 60 -10 95 5 18 9 52 9
75 0 32 4 43 15 43 9 0 15 -9 15 -24z m1061 -46 c16 0 22 29 9 45 -10 12 -9
15 4 15 13 0 16 -8 14 -40 -2 -33 -6 -40 -20 -37 -10 3 -19 -2 -21 -12 -3 -9
-4 9 -4 39 0 31 2 41 4 23 2 -18 9 -33 14 -33z m-2262 14 c29 -6 31 -9 31 -51
l0 -44 -122 7 c-68 3 -129 7 -135 10 -8 2 -13 20 -13 44 l0 40 104 0 c57 0
118 -3 135 -6z m2316 -106 c6 -5 5 -8 -3 -8 -7 0 -17 12 -22 26 -14 35 -11 45
3 14 6 -14 16 -28 22 -32z m-58 20 c-3 -8 -6 -5 -6 6 -1 11 2 17 5 13 3 -3 4
-12 1 -19z m-231 -8 c5 -5 29 -11 52 -12 31 -1 42 -5 42 -18 0 -8 9 -33 20
-55 11 -22 20 -39 20 -40 0 0 -26 1 -57 3 -32 2 -179 6 -327 10 l-269 7 24 27
c23 26 31 27 214 44 105 9 201 23 215 30 30 16 53 17 66 4z m-2237 -11 c73 -5
234 -14 359 -18 220 -8 222 -8 75 -9 -156 -2 -464 13 -563 28 -82 11 -21 11
129 -1z m1711 -74 c-7 -9 -15 -13 -17 -11 -7 7 7 26 19 26 6 0 6 -6 -2 -15z
m-390 -11 c0 -8 -4 -12 -10 -9 -5 3 -10 10 -10 16 0 5 5 9 10 9 6 0 10 -7 10
-16z m155 -4 c10 -11 16 -22 14 -24 -2 -2 -43 -7 -92 -11 l-87 -7 11 26 c12
25 24 29 110 34 15 1 34 -6 44 -18z m-995 -30 c118 -6 231 -14 250 -17 21 -4
-81 -15 -250 -28 -157 -12 -286 -21 -288 -20 -9 7 43 75 56 75 10 0 114 -5
232 -10z"/>
<path d="M2590 4351 c8 -5 26 -12 40 -15 l25 -7 -25 15 c-14 9 -32 15 -40 15
-13 0 -13 -1 0 -8z"/>
<path d="M1798 3719 c-37 -19 -38 -21 -38 -74 0 -30 2 -55 5 -55 2 0 20 8 40
17 34 16 35 18 35 75 0 32 -1 58 -2 57 -2 -1 -20 -10 -40 -20z"/>
<path d="M1698 3689 c-11 -6 -18 -21 -17 -37 1 -21 2 -22 6 -7 10 41 23 39 24
-5 l1 -45 9 45 c10 49 3 64 -23 49z"/>
<path d="M1698 3483 l-1 -68 -7 65 -7 65 -1 -67 c-2 -69 4 -83 32 -72 23 9 24
144 1 144 -12 0 -15 -15 -17 -67z"/>
<path d="M1697 3273 c-4 -3 -7 -24 -7 -46 0 -51 9 -43 15 12 4 42 3 46 -8 34z"/>
<path d="M1925 2973 c-11 -3 -24 -9 -29 -14 -9 -8 -18 -286 -10 -300 2 -4 21
-2 43 3 35 9 39 14 45 49 9 58 -5 269 -18 268 -6 -1 -20 -3 -31 -6z m30 -73
c-3 -5 -15 -10 -25 -10 -18 0 -20 -10 -23 -112 l-3 -113 -2 117 c-2 104 0 117
16 121 31 8 43 7 37 -3z"/>
<path d="M1790 2931 l-25 -7 -3 -151 -3 -151 41 10 40 10 0 149 c0 158 1 154
-50 140z"/>
<path d="M1703 2903 c-23 -4 -23 -7 -23 -154 l0 -149 28 6 c15 4 30 9 35 11 4
2 7 49 7 103 l0 100 -32 -5 -33 -5 33 15 c27 13 32 20 32 50 0 36 -2 37 -47
28z"/>
<path d="M2919 4089 c90 -44 166 -78 168 -75 7 6 -310 157 -325 155 -4 0 67
-37 157 -80z"/>
<path d="M3550 3499 l0 -101 -32 7 c-46 10 -33 1 41 -29 101 -41 105 -39 98
42 -4 37 -7 82 -7 99 0 29 -6 35 -50 58 l-50 25 0 -101z m45 39 c18 -8 25 -19
25 -40 0 -32 0 -31 -34 -18 -20 7 -26 16 -26 40 0 34 0 34 35 18z m0 -80 c20
-9 25 -18 25 -49 0 -38 0 -38 -30 -28 -26 10 -30 16 -30 50 0 44 0 43 35 27z"/>
<path d="M3570 3235 c14 -8 30 -14 35 -14 6 0 -1 6 -15 14 -14 8 -29 14 -35
14 -5 0 1 -6 15 -14z"/>
<path d="M3640 3205 c14 -8 30 -14 35 -14 6 0 -1 6 -15 14 -14 8 -29 14 -35
14 -5 0 1 -6 15 -14z"/>
<path d="M3444 3010 c0 -96 2 -136 3 -87 2 48 2 126 0 175 -1 48 -3 8 -3 -88z"/>
<path d="M3550 3943 c0 -65 4 -123 8 -129 6 -10 75 -44 88 -44 2 0 4 54 4 120
l0 119 -43 26 c-24 14 -47 25 -50 25 -4 0 -7 -53 -7 -117z m55 77 c17 -11 26
-20 22 -20 -11 0 -67 29 -67 35 0 10 16 4 45 -15z m-17 -39 c3 -8 -1 -12 -9
-9 -7 2 -15 10 -17 17 -3 8 1 12 9 9 7 -2 15 -10 17 -17z m12 -56 c0 -28 -3
-32 -20 -28 -15 4 -20 14 -20 38 0 28 3 32 20 28 15 -4 20 -14 20 -38z m0 -77
c0 -10 -4 -18 -8 -18 -14 0 -32 23 -32 42 0 16 3 16 20 6 11 -7 20 -21 20 -30z"/>
<path d="M3550 3780 c0 -5 23 -20 50 -33 28 -14 50 -19 50 -13 -1 13 -100 59
-100 46z"/>
<path d="M2680 3910 l0 -80 56 -25 c31 -14 58 -25 60 -25 2 0 4 36 4 79 l0 80
-56 25 c-31 14 -58 26 -60 26 -2 0 -4 -36 -4 -80z m90 10 c0 -6 -16 -4 -36 5
-20 8 -38 15 -40 15 -2 0 -4 7 -4 15 0 13 6 12 40 -5 22 -11 40 -25 40 -30z
m-36 -42 c-3 -10 0 -25 6 -33 15 -18 9 -19 -25 -3 -20 9 -25 18 -25 50 l0 38
25 -16 c18 -12 24 -22 19 -36z"/>
<path d="M2920 3837 l0 -66 46 -21 c26 -11 48 -20 50 -20 2 0 5 28 6 63 l2 62
6 -70 6 -70 2 70 2 70 -43 17 c-84 34 -77 37 -77 -35z m54 28 c20 -8 36 -20
36 -26 0 -7 -7 -8 -17 -4 -10 4 -28 10 -40 12 -13 3 -23 12 -23 19 0 17 0 17
44 -1z m3 -71 c8 -22 -2 -27 -26 -14 -12 6 -21 20 -21 31 0 17 3 18 21 9 11
-6 23 -18 26 -26z"/>
<path d="M2903 3716 c14 -15 17 -38 17 -146 l0 -128 43 -15 c23 -8 50 -18 60
-22 16 -7 17 3 17 133 l0 141 -52 19 c-29 11 -64 23 -78 27 -23 7 -23 7 -7 -9z
m58 -36 c15 -9 19 -22 19 -64 0 -51 -1 -53 -25 -48 -23 4 -25 8 -25 63 0 63 1
65 31 49z m66 -197 c-2 -37 -3 -9 -3 62 0 72 1 102 3 68 2 -34 2 -93 0 -130z
m-75 72 c3 -3 1 -24 -5 -46 -8 -33 -7 -43 4 -51 12 -8 11 -9 -1 -5 -10 2 -16
20 -18 55 -3 47 4 62 20 47z"/>
<path d="M2740 3280 l0 -130 28 -11 c15 -6 39 -13 53 -16 l26 -5 6 117 c3 64
7 119 10 121 2 2 18 -1 35 -7 l31 -11 3 -121 3 -121 43 -13 43 -12 -3 97 -3
96 -37 9 c-28 7 -38 14 -38 28 0 23 10 24 55 5 l35 -15 0 -135 c0 -75 -3 -136
-7 -136 -5 0 -42 9 -83 20 -41 11 -82 20 -90 20 -28 -1 12 -18 90 -39 106 -30
103 -34 101 176 l-1 122 -143 46 c-79 25 -147 45 -150 45 -4 0 -7 -59 -7 -130z
m69 89 c27 -9 44 -29 25 -29 -19 0 -84 24 -84 32 0 11 21 10 59 -3z m11 -75
l0 -33 -32 14 c-26 10 -34 20 -36 43 l-3 30 35 -10 c32 -10 36 -15 36 -44z
m-7 -41 c13 -7 8 -83 -5 -83 -46 1 -58 12 -58 56 0 43 1 44 28 38 15 -4 30 -9
35 -11z m161 7 c17 -6 26 -17 26 -30 0 -17 -5 -21 -27 -18 -22 2 -29 9 -31 31
-4 30 -3 31 32 17z m16 -90 c0 -5 -11 -10 -25 -10 -14 0 -25 5 -25 10 0 6 11
10 25 10 14 0 25 -4 25 -10z m-165 -32 c5 -5 -6 -3 -25 3 -19 6 -39 16 -45 21
-5 5 6 3 25 -3 19 -6 39 -16 45 -21z"/>
<path d="M2593 2875 c0 -38 2 -53 4 -32 2 20 2 52 0 70 -2 17 -4 1 -4 -38z"/>
<path d="M4758 3708 c-46 -10 -48 -11 -48 -45 0 -29 3 -34 17 -29 9 4 36 10
60 13 41 5 43 7 43 39 0 37 0 37 -72 22z"/>
<path d="M4002 3719 l3 -133 59 -33 c67 -38 66 -38 66 -18 0 8 -4 15 -10 15
-5 0 -11 51 -12 121 l-3 120 -53 31 -53 30 3 -133z m51 57 c9 -7 17 -25 17
-40 0 -26 0 -26 -25 -10 -15 10 -25 26 -25 40 0 27 7 29 33 10z m7 -117 c0
-37 -2 -39 -20 -29 -15 8 -20 21 -20 51 0 37 2 39 20 29 15 -8 20 -21 20 -51z
m7 -85 c-7 -7 -57 18 -57 28 0 5 14 1 31 -7 17 -9 29 -19 26 -21z"/>
<path d="M4146 3708 c-3 -35 -7 -109 -8 -165 l-3 -101 73 -36 c77 -38 82 -40
82 -28 0 4 -21 16 -47 26 -26 11 -42 21 -35 24 8 2 12 37 12 116 l0 112 -31
18 c-40 24 -31 31 12 11 l34 -16 -5 -124 c-5 -122 -5 -124 18 -135 13 -5 25
-10 27 -10 3 0 5 67 5 149 l0 150 -59 35 c-32 20 -61 36 -64 36 -3 0 -8 -28
-11 -62z m59 -106 c-3 -3 -11 0 -18 7 -9 10 -8 11 6 5 10 -3 15 -9 12 -12z"/>
<path d="M4293 3620 c0 -25 2 -35 4 -22 2 12 2 32 0 45 -2 12 -4 2 -4 -23z"/>
<path d="M3990 3496 c0 -8 111 -68 116 -63 3 3 -19 19 -49 36 -53 30 -67 36
-67 27z"/>
<path d="M3990 3290 l0 -130 33 -14 c84 -34 77 -43 77 102 l0 130 -49 21 c-27
11 -52 21 -55 21 -3 0 -6 -58 -6 -130z m50 30 c14 -11 22 -20 18 -20 -14 0
-58 23 -58 32 0 13 13 9 40 -12z m0 -94 c0 -49 -2 -54 -20 -49 -17 5 -20 14
-20 65 0 56 1 58 20 48 16 -9 20 -21 20 -64z m27 -38 c-2 -18 -4 -6 -4 27 0
33 2 48 4 33 2 -15 2 -42 0 -60z"/>
<path d="M4150 3402 c0 -4 29 -22 65 -40 36 -17 65 -28 65 -24 0 4 -29 22 -65
40 -36 17 -65 28 -65 24z"/>
<path d="M4150 3219 l0 -120 35 -15 c40 -16 56 -18 35 -3 -11 8 -9 9 10 3 14
-4 31 -9 38 -11 9 -4 12 20 12 101 l0 106 -62 30 c-34 17 -63 30 -65 30 -2 0
-3 -54 -3 -121z m34 85 c9 -4 16 -18 16 -34 0 -23 -4 -27 -20 -23 -14 4 -20
14 -20 34 0 31 1 32 24 23z m11 -127 c0 -26 4 -47 9 -47 5 0 7 -3 4 -6 -3 -3
-15 1 -27 8 -28 17 -31 102 -3 96 13 -3 17 -14 17 -51z m-5 -77 c8 -5 11 -10
5 -10 -5 0 -17 5 -25 10 -8 5 -10 10 -5 10 6 0 17 -5 25 -10z"/>
<path d="M4010 3120 c19 -11 49 -19 65 -18 19 0 23 2 10 5 -11 2 -37 11 -58
19 -51 19 -59 17 -17 -6z"/>
<path d="M3990 3075 c0 -5 54 -29 91 -40 16 -5 21 -4 14 3 -11 10 -105 43
-105 37z"/>
<path d="M4250 3060 c8 -5 20 -10 25 -10 6 0 3 5 -5 10 -8 5 -19 10 -25 10 -5
0 -3 -5 5 -10z"/>
<path d="M4140 3022 c0 -5 32 -20 70 -33 68 -23 70 -25 70 -56 0 -39 -7 -40
-77 -13 l-53 20 0 -154 c0 -151 0 -154 23 -159 12 -3 32 -9 45 -12 22 -7 22
-7 24 126 l2 134 6 -140 c4 -123 7 -140 23 -143 16 -3 17 11 17 191 l0 195
-71 26 c-79 29 -79 29 -79 18z m68 -181 c3 -28 1 -30 -20 -22 -18 6 -24 17
-26 46 -3 38 -3 38 20 23 14 -9 24 -27 26 -47z m-6 -116 c-2 -38 -5 -72 -7
-74 -2 -2 -11 -1 -20 2 -11 5 -15 23 -15 77 0 68 1 71 23 68 21 -3 22 -7 19
-73z"/>
<path d="M3990 2857 c0 -91 -2 -172 -5 -180 -3 -7 0 -14 7 -15 7 0 67 -21 133
-46 117 -43 205 -69 160 -46 -11 5 -59 24 -107 41 l-88 31 0 172 0 173 -37 12
c-21 7 -44 15 -50 17 -10 5 -13 -31 -13 -159z m58 75 c3 -40 2 -41 -20 -33
-18 6 -24 17 -26 49 -3 40 -2 41 20 33 18 -6 24 -17 26 -49z m-24 -58 c13 -5
16 -23 16 -95 0 -88 -5 -100 -28 -77 -11 11 -18 178 -8 178 2 0 11 -3 20 -6z
m54 -214 c3 0 3 -3 0 -6 -7 -6 -78 22 -78 31 0 3 16 -2 36 -10 20 -8 39 -15
42 -15z"/>
<path d="M3301 3644 c0 -11 3 -14 6 -6 3 7 2 16 -1 19 -3 4 -6 -2 -5 -13z"/>
<path d="M4513 3030 c0 -47 2 -66 4 -42 2 23 2 61 0 85 -2 23 -4 4 -4 -43z"/>
<path d="M2543 2685 c0 -33 2 -45 4 -27 2 18 2 45 0 60 -2 15 -4 0 -4 -33z"/>
<path d="M2910 2680 c-6 -11 -8 -20 -6 -20 3 0 10 9 16 20 6 11 8 20 6 20 -3
0 -10 -9 -16 -20z"/>
<path d="M2441 2644 c0 -11 3 -14 6 -6 3 7 2 16 -1 19 -3 4 -6 -2 -5 -13z"/>
<path d="M2875 2620 c-9 -16 -13 -30 -11 -30 3 0 12 14 21 30 9 17 13 30 11
30 -3 0 -12 -13 -21 -30z"/>
<path d="M3371 1711 c-35 -22 38 -62 83 -45 27 10 18 24 -11 18 -16 -3 -39 -1
-53 5 -23 9 -21 10 18 10 26 1 41 5 37 11 -8 12 -55 13 -74 1z"/>
<path d="M3633 1643 c26 -2 67 -2 90 0 23 2 2 3 -48 3 -49 0 -68 -1 -42 -3z"/>
<path d="M3708 1513 c7 -3 16 -2 19 1 4 3 -2 6 -13 5 -11 0 -14 -3 -6 -6z"/>
<path d="M3613 1503 c15 -2 37 -2 50 0 12 2 0 4 -28 4 -27 0 -38 -2 -22 -4z"/>
<path d="M3458 1493 c17 -2 47 -2 65 0 17 2 3 4 -33 4 -36 0 -50 -2 -32 -4z"/>
<path d="M4403 2605 c0 -33 2 -45 4 -27 2 18 2 45 0 60 -2 15 -4 0 -4 -33z"/>
<path d="M1803 2453 c-22 -4 -23 -8 -23 -109 0 -57 4 -104 9 -104 4 0 22 5 40
11 l31 11 0 99 c0 107 2 103 -57 92z m36 -34 c-22 -14 -49 -11 -49 5 0 9 12
16 28 18 30 3 42 -10 21 -23z"/>
<path d="M1713 2442 l-33 -3 0 -108 0 -108 38 6 c44 7 47 20 35 141 l-8 75
-32 -3z"/>
<path d="M3758 2333 c6 -2 18 -2 25 0 6 3 1 5 -13 5 -14 0 -19 -2 -12 -5z"/>
<path d="M3880 2310 c47 -10 94 -19 105 -19 29 1 -81 27 -140 33 -34 4 -23 -1
35 -14z"/>
<path d="M4055 2274 c28 -7 57 -13 65 -13 8 0 -7 7 -35 15 -27 7 -57 13 -65
13 -8 0 8 -7 35 -15z"/>
<path d="M2160 1812 l-45 -27 143 -3 c133 -2 150 -1 220 24 43 14 79 28 81 30
2 2 -76 4 -175 4 -177 0 -179 0 -224 -28z"/>
<path d="M3274 1720 c0 -63 1 -89 3 -57 2 31 2 83 0 115 -2 31 -3 5 -3 -58z"/>
<path d="M3138 1729 c-10 -5 -18 -15 -18 -22 0 -17 62 -35 100 -29 48 7 30 27
-22 23 -28 -1 -49 2 -53 9 -6 9 3 11 33 8 32 -3 38 -1 30 9 -12 15 -46 16 -70
2z"/>
<path d="M2184 1654 c-18 -14 -18 -15 4 -4 12 6 22 13 22 15 0 8 -5 6 -26 -11z"/>
<path d="M1644 1628 l-19 -23 23 19 c21 18 27 26 19 26 -2 0 -12 -10 -23 -22z"/>
<path d="M3261 1578 c-1 -19 -7 -28 -18 -29 -11 0 -13 -3 -5 -6 6 -2 12 -14
13 -26 1 -12 5 -4 10 18 5 22 8 46 5 55 -2 8 -4 3 -5 -12z"/>
<path d="M3198 1533 c7 -3 16 -2 19 1 4 3 -2 6 -13 5 -11 0 -14 -3 -6 -6z"/>
<path d="M4727 2283 c-4 -3 -7 -19 -7 -34 0 -27 2 -28 33 -22 48 9 67 21 67
43 0 17 -7 20 -43 20 -24 0 -47 -3 -50 -7z"/>
<path d="M450 1548 l0 -278 115 0 115 0 0 270 0 270 -27 1 c-16 0 -67 4 -115
7 l-88 7 0 -277z m110 150 c-55 -77 -99 -124 -100 -107 0 14 114 149 127 149
2 0 -10 -19 -27 -42z m84 -99 c-11 -12 -30 -19 -53 -19 l-35 0 49 51 50 50 3
-31 c2 -20 -3 -39 -14 -51z"/>
<path d="M4590 1395 c0 -19 4 -35 8 -35 4 0 6 16 4 35 -2 19 -6 35 -8 35 -2 0
-4 -16 -4 -35z"/>
<path d="M4591 1324 c0 -11 3 -14 6 -6 3 7 2 16 -1 19 -3 4 -6 -2 -5 -13z"/>
<path d="M3255 1330 c0 -33 3 -60 8 -60 4 0 7 27 7 60 0 33 -3 60 -7 60 -5 0
-8 -27 -8 -60z"/>
<path d="M2641 1179 c0 -9 -16 -31 -33 -49 -18 -18 -27 -30 -21 -26 9 5 11 2
7 -8 -3 -9 -10 -14 -14 -11 -14 8 -30 -55 -30 -116 0 -131 43 -221 105 -221
28 0 28 -1 9 -16 -17 -13 -17 -14 -1 -8 10 3 24 6 29 6 6 0 8 3 5 7 -4 3 1 16
10 27 17 20 17 20 -1 6 -19 -15 -19 -14 -2 13 18 27 34 39 20 15 -4 -8 -3 -9
2 -5 5 5 9 14 9 20 0 7 7 39 14 72 25 110 -6 227 -69 263 -16 9 -31 24 -34 32
-3 12 -4 12 -5 -1z m45 -91 c19 -23 19 -23 -2 -5 -11 9 -26 17 -32 17 -7 0
-12 -8 -12 -17 0 -15 -2 -16 -9 -3 -23 35 26 42 55 8z m-66 -44 c0 -8 -4 -12
-10 -9 -5 3 -10 13 -10 21 0 8 5 12 10 9 6 -3 10 -13 10 -21z m68 -1 c24 -47
19 -150 -8 -177 -8 -8 -16 -5 -31 14 -16 20 -19 37 -16 86 4 79 33 120 55 77z
m-121 -25 c-3 -8 -6 -5 -6 6 -1 11 2 17 5 13 3 -3 4 -12 1 -19z m47 -46 c-4
-12 -10 -22 -16 -22 -7 0 -7 15 1 60 1 2 5 0 11 -6 5 -5 7 -19 4 -32z m-47
-54 c-3 -7 -5 -2 -5 12 0 14 2 19 5 13 2 -7 2 -19 0 -25z m160 -10 c-3 -8 -6
-5 -6 6 -1 11 2 17 5 13 3 -3 4 -12 1 -19z m-107 -8 c0 -5 -4 -10 -10 -10 -5
0 -10 5 -10 10 0 6 5 10 10 10 6 0 10 -4 10 -10z m0 -30 c0 -5 -5 -10 -11 -10
-5 0 -7 5 -4 10 3 6 8 10 11 10 2 0 4 -4 4 -10z m80 -30 c-6 -11 -13 -20 -16
-20 -2 0 0 9 6 20 6 11 13 20 16 20 2 0 0 -9 -6 -20z m-31 -27 c2 -2 -10 -3
-28 -3 -27 0 -30 2 -19 14 10 11 17 11 28 3 8 -6 17 -13 19 -14z"/>
<path d="M0 4641 c0 -14 13 -24 45 -37 43 -16 45 -19 45 -56 0 -44 5 -42 -69
-22 -19 6 -22 3 -20 -11 3 -11 22 -25 47 -34 l42 -15 0 -108 c0 -59 -2 -108
-5 -108 -3 0 -22 7 -42 15 -44 19 -43 19 -43 -3 0 -13 15 -23 52 -37 29 -10
58 -22 63 -26 6 -5 16 0 23 12 7 11 8 19 2 19 -6 0 -11 73 -12 187 l-3 188
-27 13 c-15 7 -43 19 -62 27 -34 14 -36 14 -36 -4z"/>
<path d="M278 4568 c-1 -2 -4 -86 -8 -188 -4 -102 -11 -197 -14 -211 -8 -25
-5 -27 131 -76 l138 -51 3 151 c1 84 -1 179 -5 212 l-8 59 -105 46 c-58 25
-111 49 -117 53 -7 5 -14 7 -15 5z m125 -94 c85 -36 87 -38 87 -70 l0 -34 -52
21 c-29 12 -73 29 -98 39 -41 16 -45 21 -48 55 -3 28 0 36 10 32 7 -3 52 -22
101 -43z m-10 -90 c81 -31 125 -54 104 -54 -12 0 -192 73 -201 81 -17 15 2 10
97 -27z m86 -167 c-7 -31 -15 -57 -20 -57 -5 0 -7 6 -5 13 2 6 10 34 16 60 17
65 23 54 9 -16z m-66 -82 c65 -23 107 -43 107 -51 0 -8 -3 -14 -6 -14 -7 0
-182 64 -222 80 -23 10 -21 35 2 27 6 -2 59 -21 119 -42z"/>
<path d="M2175 4444 c-19 -14 -19 -15 2 -11 26 4 38 13 26 20 -4 3 -17 -1 -28
-9z"/>
<path d="M614 4320 c0 -52 1 -74 3 -47 2 26 2 68 0 95 -2 26 -3 4 -3 -48z"/>
<path d="M2183 4265 c0 -33 2 -45 4 -27 2 18 2 45 0 60 -2 15 -4 0 -4 -33z"/>
<path d="M602 3973 c-1 -34 2 -64 8 -68 5 -3 9 -81 9 -182 1 -97 3 -179 6
-181 3 -3 5 30 5 72 0 58 3 77 13 73 6 -2 11 -15 9 -29 -3 -23 2 -28 47 -43
78 -26 60 -33 -21 -9 -17 5 -18 -6 -18 -125 0 -110 -2 -130 -15 -125 -10 4
-15 26 -18 72 l-3 67 -2 -75 -2 -75 115 -29 c78 -20 115 -34 115 -43 0 -9 -7
-12 -17 -9 -186 54 -237 64 -207 37 17 -15 224 -65 232 -55 4 5 6 126 4 270
l-3 261 -106 32 c-58 18 -107 31 -109 29 -2 -2 42 -19 96 -37 l100 -32 0 -230
c0 -221 -1 -229 -20 -229 -19 0 -20 8 -22 172 l-3 173 -82 30 -83 30 0 88 c0
48 4 87 9 87 5 0 58 -18 117 -39 59 -22 102 -35 97 -30 -11 11 -147 63 -205
79 l-37 11 -4 62 -3 62 -2 -62z"/>
<path d="M340 3981 c67 -18 132 -48 184 -84 16 -12 26 -16 22 -9 -22 36 -201
114 -256 111 -8 0 14 -8 50 -18z"/>
<path d="M10 3972 c8 -5 26 -13 40 -16 17 -5 20 -4 10 2 -8 5 -26 13 -40 16
-17 5 -20 4 -10 -2z"/>
<path d="M122 3950 c-2 -8 -2 -109 -2 -225 1 -156 -2 -207 -11 -198 -7 7 -10
69 -7 202 l3 191 -44 15 c-57 19 -61 19 -61 -4 0 -12 11 -21 33 -27 30 -9 32
-13 35 -61 l3 -52 -32 9 c-18 5 -35 8 -37 5 -11 -11 10 -34 37 -40 l31 -7 0
-109 c0 -60 -1 -109 -3 -109 -1 0 -17 4 -35 9 -27 8 -32 7 -32 -8 0 -13 16
-21 67 -33 38 -9 68 -16 68 -15 1 34 -12 467 -13 457z"/>
<path d="M250 3873 l0 -58 131 -39 c71 -22 132 -43 135 -48 9 -14 -18 -9 -131
27 -60 19 -113 35 -117 35 -5 0 -8 -74 -8 -165 0 -103 -4 -165 -10 -165 -17 0
-11 -38 8 -44 47 -14 278 -76 284 -76 4 0 9 109 10 243 l3 242 -72 31 c-77 34
-148 59 -200 69 l-33 7 0 -59z m233 -314 c-10 -17 -27 -38 -37 -47 -11 -9 -5
4 13 31 36 53 52 64 24 16z m44 -106 c-2 -27 -3 -5 -3 47 0 52 1 74 3 48 2
-27 2 -69 0 -95z m-110 -35 c68 -17 123 -34 123 -39 0 -13 -13 -11 -119 17
-140 37 -161 44 -161 56 0 6 8 7 17 4 9 -4 72 -21 140 -38z"/>
<path d="M5083 3763 c-9 -3 -13 -29 -13 -80 0 -71 1 -74 23 -71 20 3 22 9 25
81 3 78 0 85 -35 70z"/>
<path d="M2 3488 c2 -6 33 -20 69 -30 76 -21 82 -22 77 -6 -2 6 -33 20 -69 30
-76 21 -82 22 -77 6z"/>
<path d="M55 3285 c22 -8 49 -13 60 -13 11 0 -2 6 -30 14 -63 17 -84 16 -30
-1z"/>
<path d="M148 3263 c7 -3 16 -2 19 1 4 3 -2 6 -13 5 -11 0 -14 -3 -6 -6z"/>
<path d="M0 3192 c0 -43 6 -47 93 -66 l27 -6 0 -256 0 -256 -46 7 c-26 3 -53
9 -60 12 -8 3 -14 -1 -14 -10 0 -16 11 -21 70 -32 19 -4 43 -9 52 -11 17 -5
18 14 18 309 l0 314 -57 13 c-32 7 -64 15 -70 17 -9 4 -13 -7 -13 -35z"/>
<path d="M610 2775 c0 -168 1 -305 3 -305 9 0 166 -31 185 -36 l22 -6 -2 303
-3 303 -90 23 c-49 12 -96 23 -102 23 -10 0 -13 -68 -13 -305z m170 213 c-1
-7 -7 -24 -15 -38 -19 -34 -18 -40 5 -40 19 0 20 -7 20 -232 0 -163 -3 -229
-11 -221 -7 7 -9 82 -7 222 l3 212 -37 9 c-101 26 -122 34 -106 37 10 3 41 17
70 33 58 32 78 37 78 18z m-51 -187 c-49 -173 -54 -186 -77 -189 -22 -3 -22
-2 -22 141 l0 145 59 -16 59 -16 -19 -65z"/>
<path d="M1440 2610 l0 -290 -26 -10 c-14 -6 -30 -10 -35 -10 -5 0 -9 50 -9
114 0 95 3 115 16 120 22 8 22 8 26 -11 3 -13 6 -10 9 8 6 26 5 26 -25 18 -39
-11 -36 -12 -36 6 0 8 -7 15 -15 15 -21 0 -19 17 4 23 16 4 19 16 23 81 2 54
8 80 18 86 23 15 -3 12 -42 -4 l-35 -15 -7 -406 c-4 -224 -5 -409 -2 -412 2
-3 18 -2 35 2 l31 7 0 159 c0 135 -2 159 -15 159 -33 0 -12 18 28 24 23 4 48
10 55 14 9 6 13 81 15 310 1 166 -1 302 -5 302 -5 0 -8 -131 -8 -290z m-83
-227 c-3 -10 -5 -4 -5 12 0 17 2 24 5 18 2 -7 2 -21 0 -30z m-5 -235 c-8 -8
-13 -50 -13 -112 -2 -113 -7 -96 -11 37 -3 81 -2 87 17 87 15 0 16 -3 7 -12z"/>
<path d="M5093 2733 c-22 -4 -23 -9 -23 -99 0 -94 0 -94 25 -94 l25 0 0 100
c0 55 -1 99 -2 99 -2 -1 -13 -4 -25 -6z"/>
<path d="M1238 2723 c-15 -4 -18 -17 -18 -90 0 -74 2 -84 16 -79 9 3 22 6 30
6 11 0 14 18 14 85 0 87 -1 89 -42 78z"/>
<path d="M1003 2672 c-24 -9 -43 -20 -43 -24 0 -4 21 2 47 13 76 32 72 40 -4
11z"/>
<path d="M1178 2683 c-15 -4 -16 -13 -11 -71 3 -37 6 -68 7 -69 1 -1 15 -4 31
-7 17 -4 23 -3 15 1 -11 6 -16 28 -19 78 -1 39 -4 70 -4 71 -1 0 -10 -1 -19
-3z"/>
<path d="M1008 2646 c-28 -10 -28 -11 -28 -93 0 -80 1 -83 19 -73 27 14 27 14
29 -27 2 -21 0 -34 -3 -31 -4 4 -15 -1 -26 -10 -17 -14 -19 -31 -19 -135 l0
-119 27 7 c16 4 29 8 31 9 1 2 1 111 0 242 l-3 239 -27 -9z m-6 -73 c-5 -83
-9 -90 -11 -20 0 37 2 67 7 67 4 0 6 -21 4 -47z m25 -215 c-2 -13 -4 -5 -4 17
-1 22 1 32 4 23 2 -10 2 -28 0 -40z m-18 -50 c0 -53 5 -94 11 -96 5 -2 10 -8
10 -13 0 -5 -9 -4 -20 3 -18 11 -20 24 -20 105 0 51 4 93 9 93 5 0 10 -42 10
-92z"/>
<path d="M1380 2590 c-9 -6 -10 -10 -3 -10 6 0 15 5 18 10 8 12 4 12 -15 0z"/>
<path d="M1065 2490 c-3 -6 1 -7 9 -4 18 7 21 14 7 14 -6 0 -13 -4 -16 -10z"/>
<path d="M1208 2474 l-48 -15 0 -94 c0 -88 1 -95 20 -95 19 0 20 7 20 94 0 78
3 95 17 100 14 6 15 -2 10 -84 l-7 -90 30 0 30 0 0 100 c0 111 3 107 -72 84z"/>
<path d="M1078 2433 c7 -3 16 -2 19 1 4 3 -2 6 -13 5 -11 0 -14 -3 -6 -6z"/>
<path d="M5068 2255 c3 -29 8 -35 28 -35 21 0 24 5 24 35 0 32 -3 35 -28 35
-26 0 -28 -2 -24 -35z"/>
<path d="M1225 2270 c-16 -7 -14 -8 12 -7 18 1 33 5 33 10 0 9 -19 8 -45 -3z"/>
<path d="M1408 2230 c2 -16 6 -30 8 -30 2 0 4 14 4 30 0 17 -4 30 -8 30 -5 0
-7 -13 -4 -30z"/>
<path d="M1058 2213 c7 -3 16 -2 19 1 4 3 -2 6 -13 5 -11 0 -14 -3 -6 -6z"/>
<path d="M5070 2120 c0 -89 0 -90 25 -90 25 0 25 1 25 90 0 89 0 90 -25 90
-25 0 -25 -1 -25 -90z"/>
<path d="M1148 2173 c7 -3 16 -2 19 1 4 3 -2 6 -13 5 -11 0 -14 -3 -6 -6z"/>
<path d="M1440 2130 c3 -27 9 -53 13 -57 9 -9 -3 90 -13 100 -3 4 -4 -15 0
-43z"/>
<path d="M4 2021 c0 -11 4 -17 8 -15 10 7 10 34 0 34 -4 0 -8 -9 -8 -19z"/>
<path d="M5050 1745 c0 -33 2 -35 35 -35 33 0 35 2 35 35 0 33 -2 35 -35 35
-33 0 -35 -2 -35 -35z"/>
<path d="M5060 1510 c0 -200 0 -201 44 -184 14 5 16 32 16 190 l0 184 -30 0
-30 0 0 -190z m40 5 c0 -110 -4 -175 -10 -175 -6 0 -10 65 -10 175 0 110 4
175 10 175 6 0 10 -65 10 -175z"/>
<path d="M770 1120 c14 -4 36 -8 50 -8 22 0 22 1 -5 8 -16 4 -39 8 -50 8 -16
0 -15 -2 5 -8z"/>
<path d="M43 1103 c26 -2 67 -2 90 0 23 2 2 3 -48 3 -50 0 -68 -1 -42 -3z"/>
<path d="M323 1103 c15 -2 37 -2 50 0 12 2 0 4 -28 4 -27 0 -38 -2 -22 -4z"/>
<path d="M5088 1023 c6 -2 18 -2 25 0 6 3 1 5 -13 5 -14 0 -19 -2 -12 -5z"/>
<path d="M4973 1013 c15 -2 37 -2 50 0 12 2 0 4 -28 4 -27 0 -38 -2 -22 -4z"/>
<path d="M4843 1003 c15 -2 37 -2 50 0 12 2 0 4 -28 4 -27 0 -38 -2 -22 -4z"/>
<path d="M1075 993 c-493 -20 -1067 -52 -1074 -58 -5 -5 27 -6 247 -9 79 0
133 2 120 5 -29 7 110 18 317 25 88 3 201 9 250 14 50 4 130 9 179 9 49 1 87
3 85 5 -8 7 -66 11 -124 9z"/>
<path d="M4708 993 c17 -2 47 -2 65 0 17 2 3 4 -33 4 -36 0 -50 -2 -32 -4z"/>
<path d="M4573 983 c15 -2 39 -2 55 0 15 2 2 4 -28 4 -30 0 -43 -2 -27 -4z"/>
<path d="M858 943 c6 -2 18 -2 25 0 6 3 1 5 -13 5 -14 0 -19 -2 -12 -5z"/>
<path d="M4403 943 c15 -2 37 -2 50 0 12 2 0 4 -28 4 -27 0 -38 -2 -22 -4z"/>
<path d="M918 933 c6 -2 18 -2 25 0 6 3 1 5 -13 5 -14 0 -19 -2 -12 -5z"/>
<path d="M4278 933 c18 -2 45 -2 60 0 15 2 0 4 -33 4 -33 0 -45 -2 -27 -4z"/>
<path d="M408 913 c6 -2 18 -2 25 0 6 3 1 5 -13 5 -14 0 -19 -2 -12 -5z"/>
<path d="M468 903 c7 -3 16 -2 19 1 4 3 -2 6 -13 5 -11 0 -14 -3 -6 -6z"/>
<path d="M5068 883 c12 -2 30 -2 40 0 9 3 -1 5 -23 4 -22 0 -30 -2 -17 -4z"/>
<path d="M4978 873 c12 -2 32 -2 45 0 12 2 2 4 -23 4 -25 0 -35 -2 -22 -4z"/>
<path d="M4898 863 c12 -2 30 -2 40 0 9 3 -1 5 -23 4 -22 0 -30 -2 -17 -4z"/>
<path d="M4813 853 c9 -2 25 -2 35 0 9 3 1 5 -18 5 -19 0 -27 -2 -17 -5z"/>
<path d="M1183 813 c15 -2 37 -2 50 0 12 2 0 4 -28 4 -27 0 -38 -2 -22 -4z"/>
<path d="M1088 803 c12 -2 30 -2 40 0 9 3 -1 5 -23 4 -22 0 -30 -2 -17 -4z"/>
<path d="M978 793 c12 -2 30 -2 40 0 9 3 -1 5 -23 4 -22 0 -30 -2 -17 -4z"/>
<path d="M878 783 c12 -2 30 -2 40 0 9 3 -1 5 -23 4 -22 0 -30 -2 -17 -4z"/>
<path d="M768 773 c12 -2 32 -2 45 0 12 2 2 4 -23 4 -25 0 -35 -2 -22 -4z"/>
<path d="M4143 773 c9 -2 25 -2 35 0 9 3 1 5 -18 5 -19 0 -27 -2 -17 -5z"/>
<path d="M653 763 c15 -2 37 -2 50 0 12 2 0 4 -28 4 -27 0 -38 -2 -22 -4z"/>
<path d="M4048 763 c12 -2 32 -2 45 0 12 2 2 4 -23 4 -25 0 -35 -2 -22 -4z"/>
<path d="M543 753 c15 -2 37 -2 50 0 12 2 0 4 -28 4 -27 0 -38 -2 -22 -4z"/>
<path d="M3885 750 c-48 -7 -48 -7 -10 -8 22 0 63 3 90 8 47 7 48 7 10 7 -22
0 -62 -3 -90 -7z"/>
<path d="M438 743 c12 -2 30 -2 40 0 9 3 -1 5 -23 4 -22 0 -30 -2 -17 -4z"/>
<path d="M328 733 c12 -2 32 -2 45 0 12 2 2 4 -23 4 -25 0 -35 -2 -22 -4z"/>
<path d="M3768 733 c12 -2 32 -2 45 0 12 2 2 4 -23 4 -25 0 -35 -2 -22 -4z"/>
<path d="M223 723 c9 -2 25 -2 35 0 9 3 1 5 -18 5 -19 0 -27 -2 -17 -5z"/>
<path d="M3688 723 c12 -2 30 -2 40 0 9 3 -1 5 -23 4 -22 0 -30 -2 -17 -4z"/>
<path d="M123 713 c15 -2 37 -2 50 0 12 2 0 4 -28 4 -27 0 -38 -2 -22 -4z"/>
<path d="M3598 713 c12 -2 32 -2 45 0 12 2 2 4 -23 4 -25 0 -35 -2 -22 -4z"/>
<path d="M18 703 c12 -2 32 -2 45 0 12 2 2 4 -23 4 -25 0 -35 -2 -22 -4z"/>
<path d="M3508 703 c12 -2 32 -2 45 0 12 2 2 4 -23 4 -25 0 -35 -2 -22 -4z"/>
<path d="M3428 693 c12 -2 30 -2 40 0 9 3 -1 5 -23 4 -22 0 -30 -2 -17 -4z"/>
<path d="M3135 666 c-99 -11 -169 -22 -155 -23 14 -2 115 8 225 21 110 13 180
24 155 24 -25 -1 -126 -10 -225 -22z"/>
<path d="M2888 633 c12 -2 32 -2 45 0 12 2 2 4 -23 4 -25 0 -35 -2 -22 -4z"/>
<path d="M2740 620 c-41 -6 -42 -7 -10 -8 19 0 58 3 85 8 47 7 48 7 10 7 -22
0 -60 -3 -85 -7z"/>
<path d="M398 603 c12 -2 30 -2 40 0 9 3 -1 5 -23 4 -22 0 -30 -2 -17 -4z"/>
<path d="M2628 603 c12 -2 32 -2 45 0 12 2 2 4 -23 4 -25 0 -35 -2 -22 -4z"/>
<path d="M293 593 c15 -2 37 -2 50 0 12 2 0 4 -28 4 -27 0 -38 -2 -22 -4z"/>
<path d="M2533 593 c15 -2 37 -2 50 0 12 2 0 4 -28 4 -27 0 -38 -2 -22 -4z"/>
<path d="M193 583 c15 -2 37 -2 50 0 12 2 0 4 -28 4 -27 0 -38 -2 -22 -4z"/>
<path d="M2433 583 c15 -2 37 -2 50 0 12 2 0 4 -28 4 -27 0 -38 -2 -22 -4z"/>
<path d="M93 573 c15 -2 37 -2 50 0 12 2 0 4 -28 4 -27 0 -38 -2 -22 -4z"/>
<path d="M2368 573 c7 -3 16 -2 19 1 4 3 -2 6 -13 5 -11 0 -14 -3 -6 -6z"/>
<path d="M13 563 c9 -2 23 -2 30 0 6 3 -1 5 -18 5 -17 0 -22 -2 -12 -5z"/>
<path d="M1758 553 c7 -3 16 -2 19 1 4 3 -2 6 -13 5 -11 0 -14 -3 -6 -6z"/>
<path d="M1678 543 c12 -2 30 -2 40 0 9 3 -1 5 -23 4 -22 0 -30 -2 -17 -4z"/>
<path d="M1598 533 c12 -2 30 -2 40 0 9 3 -1 5 -23 4 -22 0 -30 -2 -17 -4z"/>
<path d="M1518 523 c12 -2 30 -2 40 0 9 3 -1 5 -23 4 -22 0 -30 -2 -17 -4z"/>
<path d="M1438 513 c12 -2 30 -2 40 0 9 3 -1 5 -23 4 -22 0 -30 -2 -17 -4z"/>
<path d="M1210 490 c-69 -10 -109 -18 -90 -18 19 0 94 8 165 18 72 9 112 18
90 18 -22 -1 -96 -8 -165 -18z"/>
<path d="M910 460 l-105 -6 95 -1 c52 -1 115 2 140 6 39 7 40 8 10 8 -19 -1
-82 -4 -140 -7z"/>
<path d="M768 443 c7 -3 16 -2 19 1 4 3 -2 6 -13 5 -11 0 -14 -3 -6 -6z"/>
</g>
</svg>